<?xml version="1.0" encoding="UTF-8"?>
<svg version="1.1" xmlns="http://www.w3.org/2000/svg" width="1080" height="1080">
<path d="M0 0 C2.96044922 -0.36749268 2.96044922 -0.36749268 6.8046875 -0.35644531 C7.50402405 -0.35848969 8.2033606 -0.36053406 8.92388916 -0.36264038 C11.24118998 -0.36565448 13.55778347 -0.34715313 15.875 -0.328125 C17.48160628 -0.3250683 19.0882152 -0.3231915 20.69482422 -0.32244873 C24.06423054 -0.31784171 27.43339838 -0.30340095 30.80273438 -0.28125 C35.12734394 -0.25296729 39.45176549 -0.24203894 43.77645874 -0.2375679 C47.09466442 -0.23341583 50.41283187 -0.22360013 53.73101807 -0.21169281 C55.32586358 -0.20598503 56.92071277 -0.201228 58.51556396 -0.19742584 C60.74221283 -0.19056975 62.96871146 -0.17694046 65.1953125 -0.16113281 C67.09821045 -0.15089081 67.09821045 -0.15089081 69.03955078 -0.14044189 C72 0 72 0 74 1 C74 1.99 74 2.98 74 4 C78.95 4 83.9 4 89 4 C88.67 4.99 88.34 5.98 88 7 C91.3 7 94.6 7 98 7 C98.33 7.66 98.66 8.32 99 9 C98.67 9.66 98.34 10.32 98 11 C98.62648438 10.98839844 99.25296875 10.97679687 99.8984375 10.96484375 C100.71570313 10.95582031 101.53296875 10.94679688 102.375 10.9375 C103.18710937 10.92589844 103.99921875 10.91429687 104.8359375 10.90234375 C107 11 107 11 109 12 C109 13.32 109 14.64 109 16 C111.31 16 113.62 16 116 16 C116 16.99 116 17.98 116 19 C117.65 19 119.3 19 121 19 C121 20.32 121 21.64 121 23 C122.7015625 23.185625 122.7015625 23.185625 124.4375 23.375 C126.2009375 23.684375 126.2009375 23.684375 128 24 C128.33 24.66 128.66 25.32 129 26 C129.99 26.33 130.98 26.66 132 27 C132.33 27.99 132.66 28.98 133 30 C135.01508358 30.73323796 135.01508358 30.73323796 137 31 C137 31.66 137 32.32 137 33 C137.99 33 138.98 33 140 33 C141.33333333 34.33333333 142.66666667 35.66666667 144 37 C144.99 37.66 145.98 38.32 147 39 C147.33 39.99 147.66 40.98 148 42 C148.99 42.33 149.98 42.66 151 43 C151.33 43.99 151.66 44.98 152 46 C152.99 46.33 153.98 46.66 155 47 C155 47.99 155 48.98 155 50 C156.32 50 157.64 50 159 50 C159 51.32 159 52.64 159 54 C160.32 54 161.64 54 163 54 C163 55.32 163 56.64 163 58 C163.99 58 164.98 58 166 58 C166.33 58.99 166.66 59.98 167 61 C167.99 61.33 168.98 61.66 170 62 C170.33 62.99 170.66 63.98 171 65 C171.99 65.33 172.98 65.66 174 66 C174 66.99 174 67.98 174 69 C175.32 69 176.64 69 178 69 C178 70.32 178 71.64 178 73 C179.32 73 180.64 73 182 73 C182 73.99 182 74.98 182 76 C182.99 76.33 183.98 76.66 185 77 C185 77.99 185 78.98 185 80 C186.65 80 188.3 80 190 80 C190 80.99 190 81.98 190 83 C190.598125 83.144375 191.19625 83.28875 191.8125 83.4375 C193.56150404 83.8872439 195.28677023 84.42892341 197 85 C197 85.99 197 86.98 197 88 C198.2065625 88.185625 198.2065625 88.185625 199.4375 88.375 C200.283125 88.58125 201.12875 88.7875 202 89 C202.33 89.66 202.66 90.32 203 91 C204.86492402 91.38995102 204.86492402 91.38995102 207 91.5 C209.1875 91.65625 209.1875 91.65625 211 92 C211.33 92.66 211.66 93.32 212 94 C214.52092173 94.39258939 214.52092173 94.39258939 217.4375 94.5 C222.77854195 94.77854195 222.77854195 94.77854195 225 97 C225 97.33 225 97.66 225 98 C229.10403363 98.08694042 233.20783129 98.14037149 237.3125 98.1875 C238.47974609 98.21263672 239.64699219 98.23777344 240.84960938 98.26367188 C241.96787109 98.27333984 243.08613281 98.28300781 244.23828125 98.29296875 C245.26993408 98.3086792 246.30158691 98.32438965 247.36450195 98.34057617 C250.41878081 97.94588242 251.02676502 97.2384704 253 95 C255.91796875 94.70703125 255.91796875 94.70703125 259.1875 94.8125 C260.27417969 94.83957031 261.36085938 94.86664063 262.48046875 94.89453125 C263.72763672 94.94673828 263.72763672 94.94673828 265 95 C265 94.01 265 93.02 265 92 C267.64 92 270.28 92 273 92 C273 90.68 273 89.36 273 88 C273.94875 87.896875 274.8975 87.79375 275.875 87.6875 C279.29107501 87.31460705 279.29107501 87.31460705 281 84 C281.99 84.33 282.98 84.66 284 85 C284.33 83.68 284.66 82.36 285 81 C285.99 81 286.98 81 288 81 C288 80.01 288 79.02 288 78 C289.485 77.505 289.485 77.505 291 77 C291.66 76.01 292.32 75.02 293 74 C293.66 74.33 294.32 74.66 295 75 C295.33 73.68 295.66 72.36 296 71 C296.99 71 297.98 71 299 71 C299.33 69.68 299.66 68.36 300 67 C300.99 67 301.98 67 303 67 C303.33 65.35 303.66 63.7 304 62 C304.99 62 305.98 62 307 62 C307.33 60.35 307.66 58.7 308 57 C309.32 57 310.64 57 312 57 C312 56.01 312 55.02 312 54 C313.98 54 315.96 54 318 54 C318.33 55.65 318.66 57.3 319 59 C317.515 59.495 317.515 59.495 316 60 C315.67 63.96 315.34 67.92 315 72 C314.34 72 313.68 72 313 72 C312.95101563 72.62648438 312.90203125 73.25296875 312.8515625 73.8984375 C312.77679687 74.71570313 312.70203125 75.53296875 312.625 76.375 C312.55539062 77.18710937 312.48578125 77.99921875 312.4140625 78.8359375 C312 81 312 81 310 83 C309.67 83 309.34 83 309 83 C308.67 85.97 308.34 88.94 308 92 C306.515 92.495 306.515 92.495 305 93 C304.67 95.31 304.34 97.62 304 100 C303.01 100 302.02 100 301 100 C300.67 102.31 300.34 104.62 300 107 C298.515 107.495 298.515 107.495 297 108 C296.87625 108.804375 296.7525 109.60875 296.625 110.4375 C296.315625 111.7059375 296.315625 111.7059375 296 113 C295.34 113.33 294.68 113.66 294 114 C293.27840576 115.64363134 292.60648579 117.31050386 292 119 C291.01 119 290.02 119 289 119 C289 120.65 289 122.3 289 124 C287.68 124 286.36 124 285 124 C285 125.65 285 127.3 285 129 C284.01 129.33 283.02 129.66 282 130 C281.67 130.99 281.34 131.98 281 133 C280.01 133.33 279.02 133.66 278 134 C277.67 134.99 277.34 135.98 277 137 C276.01 137.33 275.02 137.66 274 138 C273.67 138.99 273.34 139.98 273 141 C270.03172784 144.62788819 267.37539146 145.57324191 263 147 C262.34 147.99 261.68 148.98 261 150 C260.34 150 259.68 150 259 150 C258.67 150.99 258.34 151.98 258 153 C255.67793475 153.70491267 253.34406932 154.37212429 251 155 C250.67 155.66 250.34 156.32 250 157 C247.67843403 157.40729228 245.3431213 157.74438677 243 158 C242.67 158.99 242.34 159.98 242 161 C239.69 161 237.38 161 235 161 C234.67 162.32 234.34 163.64 234 165 C232.95199219 165.05607422 232.95199219 165.05607422 231.8828125 165.11328125 C230.97273438 165.17902344 230.06265625 165.24476563 229.125 165.3125 C227.76761719 165.39951172 227.76761719 165.39951172 226.3828125 165.48828125 C223.63778399 165.7882039 223.63778399 165.7882039 222 169 C220.12060547 169.34057617 220.12060547 169.34057617 217.8671875 169.29296875 C217.06152344 169.28330078 216.25585938 169.27363281 215.42578125 169.26367188 C214.58402344 169.23853516 213.74226563 169.21339844 212.875 169.1875 C212.02550781 169.17396484 211.17601562 169.16042969 210.30078125 169.14648438 C208.20025163 169.11108219 206.10004707 169.05727401 204 169 C204 169.99 204 170.98 204 172 C201.442891 173.2785545 199.63447007 173.12703087 196.77172852 173.12939453 C195.13476768 173.13412277 195.13476768 173.13412277 193.46473694 173.13894653 C192.28141281 173.1369223 191.09808868 173.13489807 189.87890625 173.1328125 C188.6680687 173.13376923 187.45723114 173.13472595 186.20970154 173.13571167 C183.64492745 173.13639322 181.08015165 173.13454067 178.51538086 173.13037109 C174.58248018 173.12502715 170.64969396 173.13031458 166.71679688 173.13671875 C164.22916641 173.13605787 161.74153602 173.13477651 159.25390625 173.1328125 C157.48195641 173.13584885 157.48195641 173.13584885 155.67420959 173.13894653 C154.57975021 173.13579437 153.48529083 173.13264221 152.35766602 173.12939453 C150.91110374 173.12820114 150.91110374 173.12820114 149.43531799 173.12698364 C147 173 147 173 144 172 C144 171.34 144 170.68 144 170 C138.06 169.67 132.12 169.34 126 169 C126 168.34 126 167.68 126 167 C125.34 166.67 124.68 166.34 124 166 C124 165.34 124 164.68 124 164 C123.34 164.33 122.68 164.66 122 165 C119.3276379 165.13415472 116.67749512 165.04318541 114 165 C114 164.01 114 163.02 114 162 C111.36 161.67 108.72 161.34 106 161 C105.67 160.01 105.34 159.02 105 158 C102.69 157.67 100.38 157.34 98 157 C98 156.01 98 155.02 98 154 C95.36 153.67 92.72 153.34 90 153 C89.67 152.01 89.34 151.02 89 150 C88.01 150 87.02 150 86 150 C86 148.68 86 147.36 86 146 C83.69 145.67 81.38 145.34 79 145 C79 144.01 79 143.02 79 142 C77.35 141.67 75.7 141.34 74 141 C74 140.34 74 139.68 74 139 C72.68 138.67 71.36 138.34 70 138 C70 137.01 70 136.02 70 135 C69.01 134.67 68.02 134.34 67 134 C67 133.01 67 132.02 67 131 C65.68 131 64.36 131 63 131 C60.25 128.625 60.25 128.625 58 126 C58 125.34 58 124.68 58 124 C57.01 123.67 56.02 123.34 55 123 C55 122.34 55 121.68 55 121 C53.68 121 52.36 121 51 121 C51 119.68 51 118.36 51 117 C50.01 117 49.02 117 48 117 C47.67 115.68 47.34 114.36 47 113 C46.01 113 45.02 113 44 113 C42.31267723 111.01739574 40.64633943 109.0167658 39 107 C38.01 106.67 37.02 106.34 36 106 C36 104.68 36 103.36 36 102 C34.68 102 33.36 102 32 102 C30.45428722 99.68143083 29.20381448 97.49361571 28 95 C27.01 95 26.02 95 25 95 C25 94.01 25 93.02 25 92 C23.68 91.67 22.36 91.34 21 91 C21 90.01 21 89.02 21 88 C19.68 88 18.36 88 17 88 C17 87.01 17 86.02 17 85 C15.865625 84.87625 14.73125 84.7525 13.5625 84.625 C12.386875 84.41875 11.21125 84.2125 10 84 C9.67 83.34 9.34 82.68 9 82 C6.6859378 81.26924352 4.35171131 80.59861742 2 80 C2 79.01 2 78.02 2 77 C-1.63 77 -5.26 77 -9 77 C-9.33 76.01 -9.66 75.02 -10 74 C-21.88 74 -33.76 74 -46 74 C-45.67 74.99 -45.34 75.98 -45 77 C-48.3 77 -51.6 77 -55 77 C-55.66 78.32 -56.32 79.64 -57 81 C-58.98 81 -60.96 81 -63 81 C-63 81.99 -63 82.98 -63 84 C-64.134375 84.28875 -65.26875 84.5775 -66.4375 84.875 C-67.613125 85.24625 -68.78875 85.6175 -70 86 C-70.33 86.66 -70.66 87.32 -71 88 C-71.99 88.33 -72.98 88.66 -74 89 C-74 89.66 -74 90.32 -74 91 C-76.64738916 92.4606285 -77.89448334 93 -81 93 C-81 93.99 -81 94.98 -81 96 C-82.98 96.99 -82.98 96.99 -85 98 C-85 98.66 -85 99.32 -85 100 C-85.8971875 100.4021875 -85.8971875 100.4021875 -86.8125 100.8125 C-89.87260694 102.47370091 -91.62664277 103.81204519 -92.6875 107.1875 C-92.790625 107.785625 -92.89375 108.38375 -93 109 C-94.98 109.495 -94.98 109.495 -97 110 C-97 111.65 -97 113.3 -97 115 C-100.3171411 116.4216319 -103.44219804 117.39009109 -107 118 C-107 116.68 -107 115.36 -107 114 C-106.34 114 -105.68 114 -105 114 C-105.05220703 112.62714844 -105.05220703 112.62714844 -105.10546875 111.2265625 C-105.14607422 109.44378906 -105.14607422 109.44378906 -105.1875 107.625 C-105.22230469 106.44164062 -105.25710937 105.25828125 -105.29296875 104.0390625 C-105.19628906 103.03617187 -105.09960938 102.03328125 -105 101 C-103.515 100.01 -103.515 100.01 -102 99 C-101.49415526 96.83536674 -101.49415526 96.83536674 -101.4375 94.4375 C-101.30859375 91.99609375 -101.30859375 91.99609375 -101 90 C-100.01 89.505 -100.01 89.505 -99 89 C-98.53476937 87.10466658 -98.53476937 87.10466658 -98.375 84.9375 C-98.25125 83.638125 -98.1275 82.33875 -98 81 C-96.02 80.505 -96.02 80.505 -94 80 C-94 77.36 -94 74.72 -94 72 C-93.01 72 -92.02 72 -91 72 C-90.67 69.69 -90.34 67.38 -90 65 C-88.515 64.505 -88.515 64.505 -87 64 C-86.896875 63.21625 -86.79375 62.4325 -86.6875 61.625 C-86 59 -86 59 -83 57 C-82.27617533 54.94074861 -82.27617533 54.94074861 -82 53 C-81.01 53 -80.02 53 -79 53 C-79 51.35 -79 49.7 -79 48 C-78.01 47.505 -78.01 47.505 -77 47 C-76.34 47.33 -75.68 47.66 -75 48 C-75 46.35 -75 44.7 -75 43 C-73.02 42.505 -73.02 42.505 -71 42 C-70.67 40.68 -70.34 39.36 -70 38 C-69.01 38 -68.02 38 -67 38 C-67 37.01 -67 36.02 -67 35 C-65.68 35 -64.36 35 -63 35 C-63 33.68 -63 32.36 -63 31 C-60.38058783 29.25372522 -58.96175123 28.61277612 -56 28 C-55.67 26.68 -55.34 25.36 -55 24 C-52.69 23.67 -50.38 23.34 -48 23 C-47.896875 22.360625 -47.79375 21.72125 -47.6875 21.0625 C-47.460625 20.381875 -47.23375 19.70125 -47 19 C-46.01 18.67 -45.02 18.34 -44 18 C-44 17.34 -44 16.68 -44 16 C-40.535 15.505 -40.535 15.505 -37 15 C-36.67 14.01 -36.34 13.02 -36 12 C-32.535 11.505 -32.535 11.505 -29 11 C-28.67 10.01 -28.34 9.02 -28 8 C-25.10655794 6.55327897 -22.19460336 6.61943417 -18.99609375 6.37890625 C-18.33738281 6.25386719 -17.67867188 6.12882812 -17 6 C-16.67 5.34 -16.34 4.68 -16 4 C-12.40663255 3.64111754 -8.83154483 3.55521657 -5.22265625 3.44140625 C-4.15917969 3.29574219 -3.09570312 3.15007812 -2 3 C-1.34 2.01 -0.68 1.02 0 0 Z " fill="#00B1B5" transform="translate(336,406)"/>
<path d="M0 0 C22.77 0 45.54 0 69 0 C69 0.33 69 0.66 69 1 C75.93 1.495 75.93 1.495 83 2 C83 2.99 83 3.98 83 5 C84.5778125 4.9690625 84.5778125 4.9690625 86.1875 4.9375 C89.32704904 4.98896802 91.96883396 5.26517187 95 6 C95 6.66 95 7.32 95 8 C97.97 8.33 100.94 8.66 104 9 C104 10.32 104 11.64 104 13 C106.64 13 109.28 13 112 13 C111.67 13.99 111.34 14.98 111 16 C113.31 16.66 115.62 17.32 118 18 C118 18.99 118 19.98 118 21 C120.31 21 122.62 21 125 21 C125.33 22.32 125.66 23.64 126 25 C127.32 25 128.64 25 130 25 C130 25.66 130 26.32 130 27 C131.98 27.99 131.98 27.99 134 29 C134 29.99 134 30.98 134 32 C135.423125 32.1546875 135.423125 32.1546875 136.875 32.3125 C140 33 140 33 142 36 C142.99 36.33 143.98 36.66 145 37 C145.33 37.99 145.66 38.98 146 40 C146.99 40.33 147.98 40.66 149 41 C149 42.32 149 43.64 149 45 C150.485 44.505 150.485 44.505 152 44 C152.33 44.99 152.66 45.98 153 47 C153.99 47.33 154.98 47.66 156 48 C156 49.32 156 50.64 156 52 C157.32 52 158.64 52 160 52 C160 52.99 160 53.98 160 55 C161.32 55.33 162.64 55.66 164 56 C164 56.99 164 57.98 164 59 C165.32 59.33 166.64 59.66 168 60 C168 61.32 168 62.64 168 64 C168.598125 64.12375 169.19625 64.2475 169.8125 64.375 C172 65 172 65 175 67 C175 68.32 175 69.64 175 71 C176.32 71 177.64 71 179 71 C179.33 71.99 179.66 72.98 180 74 C180.99 74.33 181.98 74.66 183 75 C183 75.99 183 76.98 183 78 C184.32 78 185.64 78 187 78 C187.33 78.99 187.66 79.98 188 81 C191.00847418 82.22520264 191.00847418 82.22520264 194 83 C194 83.99 194 84.98 194 86 C195.65 86 197.3 86 199 86 C199 86.99 199 87.98 199 89 C200.11375 89.103125 201.2275 89.20625 202.375 89.3125 C203.57125 89.539375 204.7675 89.76625 206 90 C206.66 90.99 207.32 91.98 208 93 C210.16463326 93.50584474 210.16463326 93.50584474 212.5625 93.5625 C215.00390625 93.69140625 215.00390625 93.69140625 217 94 C217.33 94.66 217.66 95.32 218 96 C230.21 96 242.42 96 255 96 C255 95.34 255 94.68 255 94 C258.63 94 262.26 94 266 94 C266.33 92.68 266.66 91.36 267 90 C269.31 90 271.62 90 274 90 C274.33 88.68 274.66 87.36 275 86 C276.98 85.67 278.96 85.34 281 85 C281 84.01 281 83.02 281 82 C282.65 82 284.3 82 286 82 C286 81.01 286 80.02 286 79 C287.8125 76.8125 287.8125 76.8125 290 75 C290.99 75 291.98 75 293 75 C293 74.01 293 73.02 293 72 C294.485 71.505 294.485 71.505 296 71 C296.33 70.01 296.66 69.02 297 68 C299.0625 67.3125 299.0625 67.3125 301 67 C301 66.01 301 65.02 301 64 C302.485 63.505 302.485 63.505 304 63 C304.165 62.34 304.33 61.68 304.5 61 C304.665 60.34 304.83 59.68 305 59 C306.485 58.505 306.485 58.505 308 58 C308.33 57.01 308.66 56.02 309 55 C311.33294775 54.95758277 313.66702567 54.95907063 316 55 C317 56 317 56 317.0625 59.5625 C317.041875 60.696875 317.02125 61.83125 317 63 C315.68 63.33 314.36 63.66 313 64 C313 67.96 313 71.92 313 76 C312.01 76 311.02 76 310 76 C309.67 79.3 309.34 82.6 309 86 C307.515 86.495 307.515 86.495 306 87 C305.896875 88.11375 305.79375 89.2275 305.6875 90.375 C305.3471875 92.169375 305.3471875 92.169375 305 94 C303.515 94.99 303.515 94.99 302 96 C301.26656572 99.06556598 301.26656572 99.06556598 301 102 C300.01 102 299.02 102 298 102 C298 103.98 298 105.96 298 108 C296.68 108.33 295.36 108.66 294 109 C294 110.98 294 112.96 294 115 C292.515 115.495 292.515 115.495 291 116 C290.835 116.66 290.67 117.32 290.5 118 C290.335 118.66 290.17 119.32 290 120 C288.515 120.495 288.515 120.495 287 121 C286.30062468 122.31647119 285.63270867 123.65022151 285 125 C284.34 125.33 283.68 125.66 283 126 C282.31513275 127.32407669 281.65129797 128.65909241 281 130 C279.5625 132.25 279.5625 132.25 278 134 C277.01 134 276.02 134 275 134 C275 135.32 275 136.64 275 138 C272.69 138.99 270.38 139.98 268 141 C268 141.66 268 142.32 268 143 C267.360625 143.103125 266.72125 143.20625 266.0625 143.3125 C265.0415625 143.6528125 265.0415625 143.6528125 264 144 C263.67 144.99 263.34 145.98 263 147 C261.515 147.99 261.515 147.99 260 149 C259.67 149.66 259.34 150.32 259 151 C256.35139573 151.59355614 253.70802678 151.74209269 251 152 C251 152.99 251 153.98 251 155 C248.69 155 246.38 155 244 155 C244 156.32 244 157.64 244 159 C241.36 159 238.72 159 236 159 C236 159.99 236 160.98 236 162 C231.05 162.99 231.05 162.99 226 164 C226 164.99 226 165.98 226 167 C225.09636719 166.98839844 224.19273437 166.97679687 223.26171875 166.96484375 C222.08222656 166.95582031 220.90273438 166.94679688 219.6875 166.9375 C218.51574219 166.92589844 217.34398437 166.91429687 216.13671875 166.90234375 C212.96940805 166.85100102 212.96940805 166.85100102 210 168 C210 168.99 210 169.98 210 171 C200.64692389 171.04627898 191.29388701 171.08184653 181.94072151 171.10362434 C177.59797251 171.114075 173.25530167 171.12825747 168.91259766 171.15087891 C164.72401025 171.17256174 160.53549816 171.18455896 156.34685898 171.18975449 C154.7464161 171.19345847 153.14597749 171.20069113 151.54556656 171.21146011 C149.30909468 171.22591463 147.07293663 171.22798051 144.83642578 171.22705078 C143.56179474 171.231492 142.2871637 171.23593323 140.97390747 171.24050903 C138 171 138 171 136 169 C136.33 168.67 136.66 168.34 137 168 C132.91100593 166.63700198 128.90349791 166.62046091 124.6171875 166.37890625 C123.75351562 166.25386719 122.88984375 166.12882813 122 166 C121.67 165.34 121.34 164.68 121 164 C118.42048126 163.30906104 118.42048126 163.30906104 115.4375 162.875 C113.91962891 162.62363281 113.91962891 162.62363281 112.37109375 162.3671875 C111.58863281 162.24601563 110.80617188 162.12484375 110 162 C110 161.34 110 160.68 110 160 C107.69 159.67 105.38 159.34 103 159 C102.67 158.01 102.34 157.02 102 156 C99.69 155.67 97.38 155.34 95 155 C95 154.01 95 153.02 95 152 C92.69 151.67 90.38 151.34 88 151 C87.67 149.68 87.34 148.36 87 147 C85.68 147 84.36 147 83 147 C82.67 146.34 82.34 145.68 82 145 C81.01 144.690625 80.02 144.38125 79 144.0625 C78.01 143.711875 77.02 143.36125 76 143 C75.67 142.01 75.34 141.02 75 140 C74.01 139.67 73.02 139.34 72 139 C71.67 138.01 71.34 137.02 71 136 C70.01 135.67 69.02 135.34 68 135 C67.67 134.34 67.34 133.68 67 133 C66.01 133 65.02 133 64 133 C63.67 131.68 63.34 130.36 63 129 C62.01 129 61.02 129 60 129 C59.67 128.01 59.34 127.02 59 126 C58.01 125.67 57.02 125.34 56 125 C55.67 124.01 55.34 123.02 55 122 C54.01 121.34 53.02 120.68 52 120 C52 119.34 52 118.68 52 118 C50.68 117.34 49.36 116.68 48 116 C48 115.34 48 114.68 48 114 C46.68 113.67 45.36 113.34 44 113 C44 112.01 44 111.02 44 110 C43.01 110.33 42.02 110.66 41 111 C41 109.68 41 108.36 41 107 C40.360625 106.896875 39.72125 106.79375 39.0625 106.6875 C38.381875 106.460625 37.70125 106.23375 37 106 C36.67 105.01 36.34 104.02 36 103 C34.47523754 101.37495407 34.47523754 101.37495407 32.625 99.875 C31.71621094 99.09769531 31.71621094 99.09769531 30.7890625 98.3046875 C28.92426657 96.80615554 28.92426657 96.80615554 26 96 C25.67 95.34 25.34 94.68 25 94 C24.01 93.67 23.02 93.34 22 93 C22 92.34 22 91.68 22 91 C20.02 90.01 20.02 90.01 18 89 C18 88.01 18 87.02 18 86 C17.01 86 16.02 86 15 86 C14.67 85.34 14.34 84.68 14 84 C12.2984375 83.5359375 12.2984375 83.5359375 10.5625 83.0625 C7 82 7 82 5 79 C4.175 79 3.35 79 2.5 79 C1.675 79 0.85 79 0 79 C-0.66 78.01 -1.32 77.02 -2 76 C-5.34613512 75.41312216 -5.34613512 75.41312216 -9.125 75.3125 C-10.40632813 75.24675781 -11.68765625 75.18101562 -13.0078125 75.11328125 C-13.99523437 75.07589844 -14.98265625 75.03851563 -16 75 C-16 74.01 -16 73.02 -16 72 C-24.25 72 -32.5 72 -41 72 C-41 72.99 -41 73.98 -41 75 C-45.29 75 -49.58 75 -54 75 C-54.495 76.98 -54.495 76.98 -55 79 C-56.98 79 -58.96 79 -61 79 C-61.495 80.485 -61.495 80.485 -62 82 C-65.465 82.495 -65.465 82.495 -69 83 C-69 83.99 -69 84.98 -69 86 C-71.97 86.495 -71.97 86.495 -75 87 C-75.495 88.485 -75.495 88.485 -76 90 C-77.32796291 90.35412344 -78.66216607 90.68521554 -80 91 C-82.4178943 92.9701361 -82.98502564 93.95507691 -84 97 C-85.32 97 -86.64 97 -88 97 C-88 98.32 -88 99.64 -88 101 C-89.485 101.495 -89.485 101.495 -91 102 C-91.33 102.99 -91.66 103.98 -92 105 C-93.485 105.495 -93.485 105.495 -95 106 C-95.73323796 108.01508358 -95.73323796 108.01508358 -96 110 C-96.99 110 -97.98 110 -99 110 C-99.66 112.31 -100.32 114.62 -101 117 C-102.65 117 -104.3 117 -106 117 C-108.60018816 113.09971775 -108.15085514 109.52565431 -108 105 C-106.515 104.505 -106.515 104.505 -105 104 C-104.67 100.04 -104.34 96.08 -104 92 C-103.01 92.33 -102.02 92.66 -101 93 C-100.67 89.7 -100.34 86.4 -100 83 C-98.515 82.505 -98.515 82.505 -97 82 C-96.67 79.36 -96.34 76.72 -96 74 C-95.01 74 -94.02 74 -93 74 C-93.061875 72.576875 -93.061875 72.576875 -93.125 71.125 C-93 68 -93 68 -91 66 C-90.67 66 -90.34 66 -90 66 C-89.67 64.02 -89.34 62.04 -89 60 C-87.68 60 -86.36 60 -85 60 C-85 57.69 -85 55.38 -85 53 C-84.01 53 -83.02 53 -82 53 C-81.34 51.35 -80.68 49.7 -80 48 C-79.01 48 -78.02 48 -77 48 C-77 46.68 -77 45.36 -77 44 C-75.68 44 -74.36 44 -73 44 C-73 42.68 -73 41.36 -73 40 C-72.01 40 -71.02 40 -70 40 C-69.67 38.35 -69.34 36.7 -69 35 C-68.01 35 -67.02 35 -66 35 C-66 34.01 -66 33.02 -66 32 C-64.68 32 -63.36 32 -62 32 C-62 30.68 -62 29.36 -62 28 C-60.68 28 -59.36 28 -58 28 C-58 27.01 -58 26.02 -58 25 C-56.68 25 -55.36 25 -54 25 C-54 23.68 -54 22.36 -54 21 C-52.02 20.67 -50.04 20.34 -48 20 C-47.505 18.515 -47.505 18.515 -47 17 C-45.35 17 -43.7 17 -42 17 C-41.67 15.68 -41.34 14.36 -41 13 C-39.35 13 -37.7 13 -36 13 C-35.67 12.01 -35.34 11.02 -35 10 C-32.70370006 8.85185003 -30.92301914 8.69230191 -28.375 8.4375 C-27.55773437 8.35371094 -26.74046875 8.26992187 -25.8984375 8.18359375 C-25.27195312 8.12300781 -24.64546875 8.06242188 -24 8 C-24 7.34 -24 6.68 -24 6 C-23.21753906 5.87882813 -22.43507813 5.75765625 -21.62890625 5.6328125 C-20.61699219 5.46523437 -19.60507812 5.29765625 -18.5625 5.125 C-17.55316406 4.96257812 -16.54382813 4.80015625 -15.50390625 4.6328125 C-14.67761719 4.42398438 -13.85132813 4.21515625 -13 4 C-12.67 3.34 -12.34 2.68 -12 2 C-9.27734375 1.5859375 -9.27734375 1.5859375 -5.9375 1.375 C-4.83277344 1.30023438 -3.72804688 1.22546875 -2.58984375 1.1484375 C-1.73519531 1.09945312 -0.88054687 1.05046875 0 1 C0 0.67 0 0.34 0 0 Z " fill="#00ABB5" transform="translate(476,240)"/>
<path d="M0 0 C2.08687275 -0.00220212 4.17322919 -0.0204406 6.26000977 -0.03930664 C7.57678711 -0.04124023 8.89356445 -0.04317383 10.25024414 -0.04516602 C11.45318115 -0.0492749 12.65611816 -0.05338379 13.89550781 -0.05761719 C16.89477539 0.18530273 16.89477539 0.18530273 19.89477539 2.18530273 C20.38977539 3.17530273 20.38977539 3.17530273 20.89477539 4.18530273 C22.91830172 4.41376538 24.9422597 4.63965289 26.96899414 4.83764648 C29.43750783 5.2832808 30.27319433 6.33206723 31.89477539 8.18530273 C34.50088616 8.90727436 34.50088616 8.90727436 36.89477539 9.18530273 C37.38977539 10.67030273 37.38977539 10.67030273 37.89477539 12.18530273 C38.88477539 12.51530273 39.87477539 12.84530273 40.89477539 13.18530273 C40.89477539 14.50530273 40.89477539 15.82530273 40.89477539 17.18530273 C42.21477539 17.18530273 43.53477539 17.18530273 44.89477539 17.18530273 C44.89477539 19.16530273 44.89477539 21.14530273 44.89477539 23.18530273 C46.21477539 23.18530273 47.53477539 23.18530273 48.89477539 23.18530273 C48.89477539 26.81530273 48.89477539 30.44530273 48.89477539 34.18530273 C50.87477539 34.68030273 50.87477539 34.68030273 52.89477539 35.18530273 C52.93719262 37.51825049 52.93570476 39.8523284 52.89477539 42.18530273 C51.23134702 43.8487311 49.11220449 43.5457837 46.83227539 43.74780273 C45.91317383 43.8315918 44.99407227 43.91538086 44.04711914 44.00170898 C43.3368457 44.06229492 42.62657227 44.12288086 41.89477539 44.18530273 C42.22477539 45.17530273 42.55477539 46.16530273 42.89477539 47.18530273 C39.1724353 48.42608277 35.70681506 48.33085732 31.83227539 48.31030273 C31.09944336 48.31416992 30.36661133 48.31803711 29.61157227 48.32202148 C24.14814521 48.31198764 24.14814521 48.31198764 21.89477539 47.18530273 C21.30121925 44.53669847 21.1526827 41.89332951 20.89477539 39.18530273 C19.40977539 39.68030273 19.40977539 39.68030273 17.89477539 40.18530273 C16.89477539 39.18530273 16.89477539 39.18530273 16.83227539 35.62280273 C16.85290039 34.48842773 16.87352539 33.35405273 16.89477539 32.18530273 C14.58477539 31.85530273 12.27477539 31.52530273 9.89477539 31.18530273 C9.89477539 30.52530273 9.89477539 29.86530273 9.89477539 29.18530273 C3.62477539 29.18530273 -2.64522461 29.18530273 -9.10522461 29.18530273 C-9.10522461 29.84530273 -9.10522461 30.50530273 -9.10522461 31.18530273 C-11.41522461 31.84530273 -13.72522461 32.50530273 -16.10522461 33.18530273 C-15.61022461 39.62030273 -15.61022461 39.62030273 -15.10522461 46.18530273 C-12.79522461 46.51530273 -10.48522461 46.84530273 -8.10522461 47.18530273 C-8.10522461 47.84530273 -8.10522461 48.50530273 -8.10522461 49.18530273 C-6.97342773 49.24588867 -5.84163086 49.30647461 -4.67553711 49.36889648 C-3.19375316 49.4533019 -1.71198301 49.5379499 -0.23022461 49.62280273 C0.51614258 49.66211914 1.26250977 49.70143555 2.03149414 49.74194336 C7.66821289 50.07202148 7.66821289 50.07202148 9.89477539 51.18530273 C9.89477539 51.84530273 9.89477539 52.50530273 9.89477539 53.18530273 C10.88219727 53.22268555 11.86961914 53.26006836 12.88696289 53.29858398 C14.80895508 53.39719727 14.80895508 53.39719727 16.76977539 53.49780273 C18.6840332 53.58481445 18.6840332 53.58481445 20.63696289 53.67358398 C21.71204102 53.84245117 22.78711914 54.01131836 23.89477539 54.18530273 C24.55477539 55.17530273 25.21477539 56.16530273 25.89477539 57.18530273 C27.85839403 57.76279076 27.85839403 57.76279076 30.01977539 57.87280273 C31.29852539 57.97592773 32.57727539 58.07905273 33.89477539 58.18530273 C34.22477539 59.17530273 34.55477539 60.16530273 34.89477539 61.18530273 C37.90324957 62.41050537 37.90324957 62.41050537 40.89477539 63.18530273 C40.89477539 64.17530273 40.89477539 65.16530273 40.89477539 66.18530273 C42.21477539 66.18530273 43.53477539 66.18530273 44.89477539 66.18530273 C44.89477539 67.17530273 44.89477539 68.16530273 44.89477539 69.18530273 C46.87477539 69.68030273 46.87477539 69.68030273 48.89477539 70.18530273 C48.89477539 72.16530273 48.89477539 74.14530273 48.89477539 76.18530273 C50.87477539 76.68030273 50.87477539 76.68030273 52.89477539 77.18530273 C52.89477539 88.07530273 52.89477539 98.96530273 52.89477539 110.18530273 C51.57477539 110.51530273 50.25477539 110.84530273 48.89477539 111.18530273 C48.89477539 113.49530273 48.89477539 115.80530273 48.89477539 118.18530273 C47.57477539 118.18530273 46.25477539 118.18530273 44.89477539 118.18530273 C44.56477539 119.83530273 44.23477539 121.48530273 43.89477539 123.18530273 C41.91477539 123.84530273 39.93477539 124.50530273 37.89477539 125.18530273 C37.89477539 125.84530273 37.89477539 126.50530273 37.89477539 127.18530273 C36.24477539 127.51530273 34.59477539 127.84530273 32.89477539 128.18530273 C32.89477539 129.17530273 32.89477539 130.16530273 32.89477539 131.18530273 C30.25477539 131.51530273 27.61477539 131.84530273 24.89477539 132.18530273 C24.89477539 132.51530273 24.89477539 132.84530273 24.89477539 133.18530273 C10.04477539 133.18530273 -4.80522461 133.18530273 -20.10522461 133.18530273 C-20.10522461 132.85530273 -20.10522461 132.52530273 -20.10522461 132.18530273 C-22.74522461 131.85530273 -25.38522461 131.52530273 -28.10522461 131.18530273 C-28.10522461 130.19530273 -28.10522461 129.20530273 -28.10522461 128.18530273 C-31.57022461 127.69030273 -31.57022461 127.69030273 -35.10522461 127.18530273 C-35.43522461 126.19530273 -35.76522461 125.20530273 -36.10522461 124.18530273 C-38.12030819 123.45206477 -38.12030819 123.45206477 -40.10522461 123.18530273 C-40.10522461 121.86530273 -40.10522461 120.54530273 -40.10522461 119.18530273 C-41.42522461 118.85530273 -42.74522461 118.52530273 -44.10522461 118.18530273 C-44.10522461 116.53530273 -44.10522461 114.88530273 -44.10522461 113.18530273 C-45.09522461 113.18530273 -46.08522461 113.18530273 -47.10522461 113.18530273 C-47.20834961 112.07155273 -47.31147461 110.95780273 -47.41772461 109.81030273 C-47.64459961 108.61405273 -47.87147461 107.41780273 -48.10522461 106.18530273 C-49.09522461 105.52530273 -50.08522461 104.86530273 -51.10522461 104.18530273 C-51.44580078 102.21411133 -51.44580078 102.21411133 -51.39819336 99.83374023 C-51.38852539 98.98295898 -51.37885742 98.13217773 -51.36889648 97.25561523 C-51.34375977 96.36616211 -51.31862305 95.47670898 -51.29272461 94.56030273 C-51.27918945 93.66311523 -51.2656543 92.76592773 -51.25170898 91.84155273 C-51.21629386 89.62220484 -51.16690922 87.40405085 -51.10522461 85.18530273 C-46.85107838 85.16064651 -42.59696963 85.14246375 -38.34277344 85.13037109 C-36.89452388 85.12533173 -35.44627944 85.1185002 -33.99804688 85.10986328 C-31.92047873 85.09778026 -29.84297764 85.09207062 -27.76538086 85.08764648 C-26.51378174 85.08240967 -25.26218262 85.07717285 -23.97265625 85.07177734 C-21.10522461 85.18530273 -21.10522461 85.18530273 -20.10522461 86.18530273 C-20.03342497 87.70458311 -20.02130454 89.22697755 -20.04272461 90.74780273 C-20.05174805 91.5740918 -20.06077148 92.40038086 -20.07006836 93.25170898 C-20.08166992 93.88979492 -20.09327148 94.52788086 -20.10522461 95.18530273 C-18.78522461 95.51530273 -17.46522461 95.84530273 -16.10522461 96.18530273 C-16.10522461 97.83530273 -16.10522461 99.48530273 -16.10522461 101.18530273 C-15.11522461 101.18530273 -14.12522461 101.18530273 -13.10522461 101.18530273 C-13.10522461 102.17530273 -13.10522461 103.16530273 -13.10522461 104.18530273 C-10.46522461 104.18530273 -7.82522461 104.18530273 -5.10522461 104.18530273 C-5.10522461 105.17530273 -5.10522461 106.16530273 -5.10522461 107.18530273 C-0.15522461 107.18530273 4.79477539 107.18530273 9.89477539 107.18530273 C9.89477539 106.19530273 9.89477539 105.20530273 9.89477539 104.18530273 C13.35977539 103.69030273 13.35977539 103.69030273 16.89477539 103.18530273 C16.89477539 102.19530273 16.89477539 101.20530273 16.89477539 100.18530273 C18.21477539 100.18530273 19.53477539 100.18530273 20.89477539 100.18530273 C21.19039906 94.86359779 21.19039906 94.86359779 18.89477539 90.18530273 C18.23477539 90.18530273 17.57477539 90.18530273 16.89477539 90.18530273 C16.89477539 89.19530273 16.89477539 88.20530273 16.89477539 87.18530273 C13.59477539 86.52530273 10.29477539 85.86530273 6.89477539 85.18530273 C6.56477539 84.19530273 6.23477539 83.20530273 5.89477539 82.18530273 C4.21448242 82.23750977 4.21448242 82.23750977 2.50024414 82.29077148 C1.02760288 82.31891113 -0.44505459 82.3462111 -1.91772461 82.37280273 C-2.65571289 82.39793945 -3.39370117 82.42307617 -4.15405273 82.44897461 C-9.72286201 82.52456931 -9.72286201 82.52456931 -11.73413086 80.73999023 C-12.41282227 79.97041992 -12.41282227 79.97041992 -13.10522461 79.18530273 C-16.02965411 78.46430366 -16.02965411 78.46430366 -19.23022461 78.12280273 C-22.48803711 77.71264648 -22.48803711 77.71264648 -25.10522461 77.18530273 C-25.60022461 76.19530273 -25.60022461 76.19530273 -26.10522461 75.18530273 C-28.42679058 74.77801046 -30.76210331 74.44091597 -33.10522461 74.18530273 C-33.10522461 73.19530273 -33.10522461 72.20530273 -33.10522461 71.18530273 C-35.41522461 70.52530273 -37.72522461 69.86530273 -40.10522461 69.18530273 C-40.10522461 68.19530273 -40.10522461 67.20530273 -40.10522461 66.18530273 C-41.42522461 65.85530273 -42.74522461 65.52530273 -44.10522461 65.18530273 C-44.22897461 64.38092773 -44.35272461 63.57655273 -44.48022461 62.74780273 C-44.68647461 61.90217773 -44.89272461 61.05655273 -45.10522461 60.18530273 C-45.76522461 59.85530273 -46.42522461 59.52530273 -47.10522461 59.18530273 C-47.51928711 56.68139648 -47.51928711 56.68139648 -47.73022461 53.62280273 C-47.80499023 52.61088867 -47.87975586 51.59897461 -47.95678711 50.55639648 C-48.00577148 49.77393555 -48.05475586 48.99147461 -48.10522461 48.18530273 C-49.09522461 48.18530273 -50.08522461 48.18530273 -51.10522461 48.18530273 C-51.10522461 43.23530273 -51.10522461 38.28530273 -51.10522461 33.18530273 C-49.62022461 32.69030273 -49.62022461 32.69030273 -48.10522461 32.18530273 C-47.77522461 28.88530273 -47.44522461 25.58530273 -47.10522461 22.18530273 C-46.11522461 22.18530273 -45.12522461 22.18530273 -44.10522461 22.18530273 C-44.10522461 20.53530273 -44.10522461 18.88530273 -44.10522461 17.18530273 C-42.78522461 17.18530273 -41.46522461 17.18530273 -40.10522461 17.18530273 C-40.10522461 15.86530273 -40.10522461 14.54530273 -40.10522461 13.18530273 C-38.78522461 12.52530273 -37.46522461 11.86530273 -36.10522461 11.18530273 C-36.10522461 10.52530273 -36.10522461 9.86530273 -36.10522461 9.18530273 C-34.97084961 8.89655273 -33.83647461 8.60780273 -32.66772461 8.31030273 C-31.49209961 7.93905273 -30.31647461 7.56780273 -29.10522461 7.18530273 C-28.77522461 6.52530273 -28.44522461 5.86530273 -28.10522461 5.18530273 C-26.10913086 4.80639648 -26.10913086 4.80639648 -23.66772461 4.62280273 C-20.25894256 4.37918523 -20.25894256 4.37918523 -17.10522461 3.18530273 C-17.76522461 2.52530273 -18.42522461 1.86530273 -19.10522461 1.18530273 C-12.73884387 -0.03211199 -6.45289143 -0.00076465 0 0 Z " fill="#1C242A" transform="translate(996.105224609375,706.814697265625)"/>
<path d="M0 0 C1.27746094 -0.00128906 2.55492187 -0.00257813 3.87109375 -0.00390625 C4.53351074 -0.00181152 5.19592773 0.0002832 5.87841797 0.00244141 C7.89949042 0.0077946 9.92034066 0.00248486 11.94140625 -0.00390625 C13.21886719 -0.00261719 14.49632812 -0.00132812 15.8125 0 C17.56530273 0.00169189 17.56530273 0.00169189 19.35351562 0.00341797 C21.90186655 0.11143348 23.98485866 0.38301512 26.40625 1.1328125 C26.40625 2.4528125 26.40625 3.7728125 26.40625 5.1328125 C27.32857422 5.08060547 27.32857422 5.08060547 28.26953125 5.02734375 C29.07777344 5.00027344 29.88601563 4.97320313 30.71875 4.9453125 C31.91951172 4.89310547 31.91951172 4.89310547 33.14453125 4.83984375 C35.92086134 5.199472 36.60121591 6.07591318 38.40625 8.1328125 C40.50957891 8.84728893 40.50957891 8.84728893 42.40625 9.1328125 C42.40625 10.1228125 42.40625 11.1128125 42.40625 12.1328125 C43.3653125 12.2875 43.3653125 12.2875 44.34375 12.4453125 C45.024375 12.6721875 45.705 12.8990625 46.40625 13.1328125 C46.90125 14.6178125 46.90125 14.6178125 47.40625 16.1328125 C48.89125 16.6278125 48.89125 16.6278125 50.40625 17.1328125 C50.90125 19.6078125 50.90125 19.6078125 51.40625 22.1328125 C52.39625 21.8028125 53.38625 21.4728125 54.40625 21.1328125 C54.90125 25.5878125 54.90125 25.5878125 55.40625 30.1328125 C56.89125 30.6278125 56.89125 30.6278125 58.40625 31.1328125 C58.40625 35.0928125 58.40625 39.0528125 58.40625 43.1328125 C55.76625 43.7928125 53.12625 44.4528125 50.40625 45.1328125 C50.73625 45.7928125 51.06625 46.4528125 51.40625 47.1328125 C47.03113461 48.21372336 42.76008185 48.28228699 38.28125 48.2578125 C37.20810547 48.26361328 37.20810547 48.26361328 36.11328125 48.26953125 C32.94490016 48.26360904 30.43314855 48.14177868 27.40625 47.1328125 C27.07625 43.8328125 26.74625 40.5328125 26.40625 37.1328125 C24.42625 36.6378125 24.42625 36.6378125 22.40625 36.1328125 C22.40625 35.1428125 22.40625 34.1528125 22.40625 33.1328125 C21.313125 32.8440625 20.22 32.5553125 19.09375 32.2578125 C15.40625 31.1328125 15.40625 31.1328125 12.40625 29.1328125 C9.80379502 28.99060185 7.31507316 28.94478318 4.71875 29.0078125 C4.01685547 29.01683594 3.31496094 29.02585937 2.59179688 29.03515625 C0.86313475 29.05867546 -0.86535145 29.09454537 -2.59375 29.1328125 C-2.09875 30.6178125 -2.09875 30.6178125 -1.59375 32.1328125 C-4.23375 32.4628125 -6.87375 32.7928125 -9.59375 33.1328125 C-9.59375 36.7628125 -9.59375 40.3928125 -9.59375 44.1328125 C-8.60375 44.6278125 -8.60375 44.6278125 -7.59375 45.1328125 C-7.59375 45.7928125 -7.59375 46.4528125 -7.59375 47.1328125 C-5.94375 47.1328125 -4.29375 47.1328125 -2.59375 47.1328125 C-2.59375 48.1228125 -2.59375 49.1128125 -2.59375 50.1328125 C3.01625 50.1328125 8.62625 50.1328125 14.40625 50.1328125 C14.90125 52.1128125 14.90125 52.1128125 15.40625 54.1328125 C20.68625 54.1328125 25.96625 54.1328125 31.40625 54.1328125 C31.40625 54.7928125 31.40625 55.4528125 31.40625 56.1328125 C35.05418184 57.40534686 38.5999043 58.46110444 42.40625 59.1328125 C42.40625 59.7928125 42.40625 60.4528125 42.40625 61.1328125 C44.38625 61.6278125 44.38625 61.6278125 46.40625 62.1328125 C46.40625 63.4528125 46.40625 64.7728125 46.40625 66.1328125 C48.05625 66.1328125 49.70625 66.1328125 51.40625 66.1328125 C50.91125 67.6178125 50.91125 67.6178125 50.40625 69.1328125 C51.72625 69.1328125 53.04625 69.1328125 54.40625 69.1328125 C54.73625 70.7828125 55.06625 72.4328125 55.40625 74.1328125 C56.89125 74.6278125 56.89125 74.6278125 58.40625 75.1328125 C58.90125 80.5778125 58.90125 80.5778125 59.40625 86.1328125 C60.06625 86.1328125 60.72625 86.1328125 61.40625 86.1328125 C61.40625 91.4128125 61.40625 96.6928125 61.40625 102.1328125 C60.74625 102.1328125 60.08625 102.1328125 59.40625 102.1328125 C59.07625 105.7628125 58.74625 109.3928125 58.40625 113.1328125 C57.08625 113.1328125 55.76625 113.1328125 54.40625 113.1328125 C54.40625 115.1128125 54.40625 117.0928125 54.40625 119.1328125 C53.08625 119.1328125 51.76625 119.1328125 50.40625 119.1328125 C50.40625 120.4528125 50.40625 121.7728125 50.40625 123.1328125 C49.08625 123.1328125 47.76625 123.1328125 46.40625 123.1328125 C46.40625 124.4528125 46.40625 125.7728125 46.40625 127.1328125 C42.94125 127.6278125 42.94125 127.6278125 39.40625 128.1328125 C39.07625 129.1228125 38.74625 130.1128125 38.40625 131.1328125 C36.09625 131.4628125 33.78625 131.7928125 31.40625 132.1328125 C31.40625 132.4628125 31.40625 132.7928125 31.40625 133.1328125 C17.21625 133.1328125 3.02625 133.1328125 -11.59375 133.1328125 C-11.59375 132.8028125 -11.59375 132.4728125 -11.59375 132.1328125 C-12.29242187 132.09542969 -12.99109375 132.05804687 -13.7109375 132.01953125 C-15.07605469 131.92091797 -15.07605469 131.92091797 -16.46875 131.8203125 C-17.37367188 131.76230469 -18.27859375 131.70429687 -19.2109375 131.64453125 C-21.59375 131.1328125 -21.59375 131.1328125 -23.59375 128.1328125 C-24.9090841 127.43130098 -26.24492592 126.76755325 -27.59375 126.1328125 C-28.6146875 125.359375 -28.6146875 125.359375 -29.65625 124.5703125 C-31.63556496 122.94592522 -31.63556496 122.94592522 -34.59375 122.1328125 C-35.78125 120.0703125 -35.78125 120.0703125 -36.59375 118.1328125 C-36.92375 118.1328125 -37.25375 118.1328125 -37.59375 118.1328125 C-37.59375 116.1528125 -37.59375 114.1728125 -37.59375 112.1328125 C-38.91375 111.8028125 -40.23375 111.4728125 -41.59375 111.1328125 C-41.92375 108.4928125 -42.25375 105.8528125 -42.59375 103.1328125 C-43.58375 102.8028125 -44.57375 102.4728125 -45.59375 102.1328125 C-45.62059679 99.48691236 -45.64051357 96.84128154 -45.65625 94.1953125 C-45.66462891 93.44056641 -45.67300781 92.68582031 -45.68164062 91.90820312 C-45.69027441 89.98286937 -45.64599333 88.05745669 -45.59375 86.1328125 C-44.59375 85.1328125 -44.59375 85.1328125 -41.72631836 85.01928711 C-40.47471924 85.02452393 -39.22312012 85.02976074 -37.93359375 85.03515625 C-36.93689415 85.03727867 -36.93689415 85.03727867 -35.9200592 85.03944397 C-33.79041101 85.04505732 -31.66086661 85.05761196 -29.53125 85.0703125 C-28.09049631 85.07532579 -26.64974097 85.07988899 -25.20898438 85.08398438 C-21.67053898 85.09503105 -18.13215461 85.11230458 -14.59375 85.1328125 C-14.26375 86.4528125 -13.93375 87.7728125 -13.59375 89.1328125 C-12.60375 89.1328125 -11.61375 89.1328125 -10.59375 89.1328125 C-10.59375 92.7628125 -10.59375 96.3928125 -10.59375 100.1328125 C-9.60375 100.1328125 -8.61375 100.1328125 -7.59375 100.1328125 C-7.59375 101.4528125 -7.59375 102.7728125 -7.59375 104.1328125 C-4.29375 104.1328125 -0.99375 104.1328125 2.40625 104.1328125 C1.91125 105.6178125 1.91125 105.6178125 1.40625 107.1328125 C3.71934705 107.01939613 6.03175185 106.89177443 8.34375 106.7578125 C9.63152344 106.68820312 10.91929687 106.61859375 12.24609375 106.546875 C13.81037109 106.34191406 13.81037109 106.34191406 15.40625 106.1328125 C15.73625 105.4728125 16.06625 104.8128125 16.40625 104.1328125 C18.38625 104.1328125 20.36625 104.1328125 22.40625 104.1328125 C22.90125 102.6478125 22.90125 102.6478125 23.40625 101.1328125 C24.39625 100.8028125 25.38625 100.4728125 26.40625 100.1328125 C26.40625 96.5028125 26.40625 92.8728125 26.40625 89.1328125 C24.42625 88.6378125 24.42625 88.6378125 22.40625 88.1328125 C22.40625 87.4728125 22.40625 86.8128125 22.40625 86.1328125 C20.09625 86.1328125 17.78625 86.1328125 15.40625 86.1328125 C15.07625 85.4728125 14.74625 84.8128125 14.40625 84.1328125 C14.73625 83.4728125 15.06625 82.8128125 15.40625 82.1328125 C14.81086426 82.14852295 14.21547852 82.1642334 13.60205078 82.18041992 C10.91187997 82.24267051 8.22186043 82.28177033 5.53125 82.3203125 C4.59410156 82.34544922 3.65695312 82.37058594 2.69140625 82.39648438 C1.79550781 82.40615234 0.89960937 82.41582031 -0.0234375 82.42578125 C-0.85085449 82.4414917 -1.67827148 82.45720215 -2.53076172 82.47338867 C-3.21154785 82.36099854 -3.89233398 82.2486084 -4.59375 82.1328125 C-5.25375 81.1428125 -5.91375 80.1528125 -6.59375 79.1328125 C-9.47134068 78.32945137 -9.47134068 78.32945137 -12.71875 77.9453125 C-14.36230469 77.70748047 -14.36230469 77.70748047 -16.0390625 77.46484375 C-17.30363281 77.30048828 -17.30363281 77.30048828 -18.59375 77.1328125 C-18.59375 76.1428125 -18.59375 75.1528125 -18.59375 74.1328125 C-20.90375 74.1328125 -23.21375 74.1328125 -25.59375 74.1328125 C-25.92375 72.8128125 -26.25375 71.4928125 -26.59375 70.1328125 C-30.05875 69.6378125 -30.05875 69.6378125 -33.59375 69.1328125 C-34.25375 67.4828125 -34.91375 65.8328125 -35.59375 64.1328125 C-36.25375 64.1328125 -36.91375 64.1328125 -37.59375 64.1328125 C-37.92375 62.1528125 -38.25375 60.1728125 -38.59375 58.1328125 C-39.58375 57.8028125 -40.57375 57.4728125 -41.59375 57.1328125 C-41.59375 46.2428125 -41.59375 35.3528125 -41.59375 24.1328125 C-40.60375 23.8028125 -39.61375 23.4728125 -38.59375 23.1328125 C-38.26375 21.1528125 -37.93375 19.1728125 -37.59375 17.1328125 C-36.93375 17.1328125 -36.27375 17.1328125 -35.59375 17.1328125 C-35.47 16.2046875 -35.47 16.2046875 -35.34375 15.2578125 C-34.59375 13.1328125 -34.59375 13.1328125 -32.59375 12.0078125 C-31.93375 11.7190625 -31.27375 11.4303125 -30.59375 11.1328125 C-30.26375 10.4728125 -29.93375 9.8128125 -29.59375 9.1328125 C-27.28375 9.1328125 -24.97375 9.1328125 -22.59375 9.1328125 C-22.59375 7.8128125 -22.59375 6.4928125 -22.59375 5.1328125 C-18.96375 4.8028125 -15.33375 4.4728125 -11.59375 4.1328125 C-11.26375 3.1428125 -10.93375 2.1528125 -10.59375 1.1328125 C-7.2166822 -0.25698079 -3.60173924 0.00347658 0 0 Z " fill="#1C242A" transform="translate(879.59375,706.8671875)"/>
<path d="M0 0 C9.57 0 19.14 0 29 0 C29.66 3.3 30.32 6.6 31 10 C31.99 10 32.98 10 34 10 C34.05607422 11.89685547 34.05607422 11.89685547 34.11328125 13.83203125 C34.17893833 15.4922173 34.24538576 17.15237222 34.3125 18.8125 C34.34633789 20.06256836 34.34633789 20.06256836 34.38085938 21.33789062 C34.41630859 22.14033203 34.45175781 22.94277344 34.48828125 23.76953125 C34.51446533 24.50792236 34.54064941 25.24631348 34.56762695 26.00708008 C34.8331907 28.10471525 34.8331907 28.10471525 36.5 29.48632812 C38.48125758 31.48564404 38.4185369 32.67239976 38.51171875 35.44921875 C38.54716797 36.29677734 38.58261719 37.14433594 38.61914062 38.01757812 C38.65297852 39.33918945 38.65297852 39.33918945 38.6875 40.6875 C38.72166016 41.58017578 38.75582031 42.47285156 38.79101562 43.39257812 C38.87345648 45.59492671 38.94261551 47.79687938 39 50 C39.66 50 40.32 50 41 50 C41 46.37 41 42.74 41 39 C41.99 38.67 42.98 38.34 44 38 C44.33 34.04 44.66 30.08 45 26 C45.99 26 46.98 26 48 26 C48 22.04 48 18.08 48 14 C49.32 13.67 50.64 13.34 52 13 C51.98839844 12.36191406 51.97679687 11.72382812 51.96484375 11.06640625 C51.95582031 10.24011719 51.94679688 9.41382813 51.9375 8.5625 C51.92589844 7.73878906 51.91429687 6.91507813 51.90234375 6.06640625 C52 4 52 4 53 3 C54.92667507 2.91251793 56.85651861 2.89302666 58.78515625 2.90234375 C59.95498047 2.90556641 61.12480469 2.90878906 62.33007812 2.91210938 C63.56177734 2.92048828 64.79347656 2.92886719 66.0625 2.9375 C67.91584961 2.94426758 67.91584961 2.94426758 69.80664062 2.95117188 C72.87114117 2.96300392 75.93554721 2.97948827 79 3 C79.495 5.97 79.495 5.97 80 9 C81.32 9.33 82.64 9.66 84 10 C84 14.29 84 18.58 84 23 C84.99 22.67 85.98 22.34 87 22 C88.32286246 26.96073422 88.08893197 31.91111512 88 37 C88.99 37 89.98 37 91 37 C91 41.29 91 45.58 91 50 C91.66 49.67 92.32 49.34 93 49 C93.33 42.4 93.66 35.8 94 29 C94.66 29.33 95.32 29.66 96 30 C97.74290567 26.51418866 97.32858669 22.27365138 97.4296875 18.41015625 C97.5234375 16.40625 97.5234375 16.40625 98 13 C98.99 12.34 99.98 11.68 101 11 C101.54491374 8.60691231 101.54491374 8.60691231 101.625 5.9375 C101.91755725 1.08244275 101.91755725 1.08244275 103 0 C107.64015325 -0.2541555 112.29121306 -0.18522798 116.9375 -0.1875 C118.25169922 -0.19974609 119.56589844 -0.21199219 120.91992188 -0.22460938 C122.17224609 -0.22654297 123.42457031 -0.22847656 124.71484375 -0.23046875 C125.87105225 -0.23457764 127.02726074 -0.23868652 128.21850586 -0.24291992 C131 0 131 0 133 2 C133.30078125 4.53125 133.30078125 4.53125 133.3125 7.5 C133.32925781 8.4796875 133.34601563 9.459375 133.36328125 10.46875 C133.24339844 11.3040625 133.12351562 12.139375 133 13 C132.01 13.66 131.02 14.32 130 15 C129.41518879 17.88595946 129.41518879 17.88595946 129.3125 21.125 C129.21388672 22.76855469 129.21388672 22.76855469 129.11328125 24.4453125 C129.07589844 25.28835938 129.03851563 26.13140625 129 27 C128.01 27 127.02 27 126 27 C126 30.96 126 34.92 126 39 C124.68 39.33 123.36 39.66 122 40 C122 44.29 122 48.58 122 53 C120.68 53 119.36 53 118 53 C117.92652344 54.39025391 117.92652344 54.39025391 117.8515625 55.80859375 C117.77679688 57.00613281 117.70203125 58.20367188 117.625 59.4375 C117.55539062 60.63246094 117.48578125 61.82742188 117.4140625 63.05859375 C117.27742188 64.02925781 117.14078125 64.99992188 117 66 C116.01 66.495 116.01 66.495 115 67 C114.6433535 69.81254136 114.55586944 72.60155293 114.44140625 75.43359375 C114.22291016 76.70396484 114.22291016 76.70396484 114 78 C113.01 78.66 112.02 79.32 111 80 C110.41407366 83.11610554 110.41407366 83.11610554 110.3125 86.625 C110.24675781 87.81351563 110.18101562 89.00203125 110.11328125 90.2265625 C110.07589844 91.14179687 110.03851563 92.05703125 110 93 C108.515 92.505 108.515 92.505 107 92 C107 93.32 107 94.64 107 96 C97.43 96 87.86 96 78 96 C78 94.68 78 93.36 78 92 C77.34 92 76.68 92 76 92 C75.67 92.66 75.34 93.32 75 94 C74.505 86.575 74.505 86.575 74 79 C73.01 79 72.02 79 71 79 C71 74.05 71 69.1 71 64 C70.01 64 69.02 64 68 64 C66.47893366 60.95786733 66.62570662 57.71952428 66.4375 54.375 C66.39431641 53.66859375 66.35113281 52.9621875 66.30664062 52.234375 C66.20055249 50.48981463 66.09977111 48.74493303 66 47 C65.34 47 64.68 47 64 47 C64 51.29 64 55.58 64 60 C63.34 60 62.68 60 62 60 C60.35555479 63.28889042 60.6009589 66.93324687 60.37890625 70.56640625 C60.19134766 71.77103516 60.19134766 71.77103516 60 73 C59.01 73.495 59.01 73.495 58 74 C57.53045739 77.04581269 57.53045739 77.04581269 57.375 80.5625 C57.30023438 81.76003906 57.22546875 82.95757813 57.1484375 84.19140625 C57.09945312 85.11824219 57.05046875 86.04507813 57 87 C55.02 87.495 55.02 87.495 53 88 C53 90.64 53 93.28 53 96 C48.74585377 96.02465622 44.49174502 96.04283899 40.23754883 96.05493164 C38.78929927 96.05997101 37.34105483 96.06680253 35.89282227 96.07543945 C33.81525412 96.08752247 31.73775303 96.09323211 29.66015625 96.09765625 C28.40855713 96.10289307 27.15695801 96.10812988 25.86743164 96.11352539 C23 96 23 96 22 95 C21.76518307 92.81707226 21.58636677 90.62796826 21.4375 88.4375 C21.31181641 86.64119141 21.31181641 86.64119141 21.18359375 84.80859375 C21.12300781 83.88175781 21.06242187 82.95492187 21 82 C20.01 82 19.02 82 18 82 C17.1276588 79.00519083 16.89170234 76.36424089 16.9375 73.25 C16.94652344 72.45078125 16.95554687 71.6515625 16.96484375 70.828125 C16.97644531 70.22484375 16.98804688 69.6215625 17 69 C16.01 69 15.02 69 14 69 C14 64.71 14 60.42 14 56 C12.68 55.67 11.36 55.34 10 55 C9.95101563 54.14535156 9.90203125 53.29070313 9.8515625 52.41015625 C9.77679688 51.30542969 9.70203125 50.20070313 9.625 49.0625 C9.55539062 47.96035156 9.48578125 46.85820313 9.4140625 45.72265625 C9.27742188 44.82417969 9.14078125 43.92570313 9 43 C8.34 42.67 7.68 42.34 7 42 C6.5859375 39.05859375 6.5859375 39.05859375 6.375 35.4375 C6.26285156 33.64119141 6.26285156 33.64119141 6.1484375 31.80859375 C6.09945313 30.88175781 6.05046875 29.95492187 6 29 C4.68 29.33 3.36 29.66 2 30 C2 25.38 2 20.76 2 16 C1.01 16.33 0.02 16.66 -1 17 C-1.9702889 14.08913331 -2.16467847 12.09776315 -2.1875 9.0625 C-2.20167969 8.20785156 -2.21585937 7.35320313 -2.23046875 6.47265625 C-2 4 -2 4 0 0 Z " fill="#1C242A" transform="translate(297,742)"/>
<path d="M0 0 C1.24072266 -0.01224609 2.48144531 -0.02449219 3.75976562 -0.03710938 C5.54737305 -0.04000977 5.54737305 -0.04000977 7.37109375 -0.04296875 C8.46220459 -0.04707764 9.55331543 -0.05118652 10.67749023 -0.05541992 C13.5140908 0.18342391 15.15781761 0.71819429 17.5625 2.1875 C17.2325 2.8475 16.9025 3.5075 16.5625 4.1875 C20.5225 4.5175 24.4825 4.8475 28.5625 5.1875 C28.5625 6.5075 28.5625 7.8275 28.5625 9.1875 C29.8825 9.1875 31.2025 9.1875 32.5625 9.1875 C33.0575 10.1775 33.0575 10.1775 33.5625 11.1875 C34.5525 11.5175 35.5425 11.8475 36.5625 12.1875 C40.5625 16.64464286 40.5625 16.64464286 40.5625 19.1875 C41.5525 19.1875 42.5425 19.1875 43.5625 19.1875 C44.0575 21.6625 44.0575 21.6625 44.5625 24.1875 C46.0475 24.6825 46.0475 24.6825 47.5625 25.1875 C49.16975635 28.40201269 48.61998185 31.62362536 48.5625 35.1875 C49.5525 34.8575 50.5425 34.5275 51.5625 34.1875 C51.58934679 36.83340014 51.60926357 39.47903096 51.625 42.125 C51.63337891 42.87974609 51.64175781 43.63449219 51.65039062 44.41210938 C51.65902441 46.33744313 51.61474333 48.26285581 51.5625 50.1875 C50.5625 51.1875 50.5625 51.1875 47.69506836 51.30102539 C46.44346924 51.29578857 45.19187012 51.29055176 43.90234375 51.28515625 C42.90564415 51.28303383 42.90564415 51.28303383 41.8888092 51.28086853 C39.75916101 51.27525518 37.62961661 51.26270054 35.5 51.25 C34.05924631 51.24498671 32.61849097 51.24042351 31.17773438 51.23632812 C27.63928898 51.22528145 24.10090461 51.20800792 20.5625 51.1875 C20.0675 47.2275 20.0675 47.2275 19.5625 43.1875 C18.5725 43.1875 17.5825 43.1875 16.5625 43.1875 C16.5625 40.8775 16.5625 38.5675 16.5625 36.1875 C14.5825 35.6925 14.5825 35.6925 12.5625 35.1875 C12.5625 33.8675 12.5625 32.5475 12.5625 31.1875 C11.9025 31.5175 11.2425 31.8475 10.5625 32.1875 C9.02226004 32.25700541 7.47915012 32.27202357 5.9375 32.25 C4.71160156 32.23646484 4.71160156 32.23646484 3.4609375 32.22265625 C2.83445312 32.21105469 2.20796875 32.19945312 1.5625 32.1875 C1.5625 31.5275 1.5625 30.8675 1.5625 30.1875 C0.2425 30.1875 -1.0775 30.1875 -2.4375 30.1875 C-1.9425 31.1775 -1.9425 31.1775 -1.4375 32.1875 C-2.18515625 32.14109375 -2.9328125 32.0946875 -3.703125 32.046875 C-9.73322599 31.65262627 -9.73322599 31.65262627 -15.0625 34 C-16.58180327 36.22518937 -16.58180327 36.22518937 -17.4375 39.1875 C-18.4275 39.1875 -19.4175 39.1875 -20.4375 39.1875 C-20.4375 41.4975 -20.4375 43.8075 -20.4375 46.1875 C-21.4275 46.5175 -22.4175 46.8475 -23.4375 47.1875 C-23.4375 60.7175 -23.4375 74.2475 -23.4375 88.1875 C-22.4475 88.5175 -21.4575 88.8475 -20.4375 89.1875 C-20.4375 91.8275 -20.4375 94.4675 -20.4375 97.1875 C-19.4475 97.1875 -18.4575 97.1875 -17.4375 97.1875 C-17.1075 98.1775 -16.7775 99.1675 -16.4375 100.1875 C-15.4475 100.5175 -14.4575 100.8475 -13.4375 101.1875 C-13.4375 102.1775 -13.4375 103.1675 -13.4375 104.1875 C-9.4775 104.1875 -5.5175 104.1875 -1.4375 104.1875 C-1.9325 105.6725 -1.9325 105.6725 -2.4375 107.1875 C-0.4575 106.6925 -0.4575 106.6925 1.5625 106.1875 C1.2325 105.5275 0.9025 104.8675 0.5625 104.1875 C4.5225 104.1875 8.4825 104.1875 12.5625 104.1875 C12.5625 103.1975 12.5625 102.2075 12.5625 101.1875 C13.5525 100.8575 14.5425 100.5275 15.5625 100.1875 C15.8925 97.8775 16.2225 95.5675 16.5625 93.1875 C18.0475 93.6825 18.0475 93.6825 19.5625 94.1875 C19.8925 90.8875 20.2225 87.5875 20.5625 84.1875 C21.2225 84.1875 21.8825 84.1875 22.5625 84.1875 C22.5625 83.5275 22.5625 82.8675 22.5625 82.1875 C25.29944284 80.81902858 27.49849247 81.05782079 30.55859375 81.0546875 C31.75677734 81.05339844 32.95496094 81.05210937 34.18945312 81.05078125 C35.44693359 81.05464844 36.70441406 81.05851563 38 81.0625 C39.25361328 81.05863281 40.50722656 81.05476562 41.79882812 81.05078125 C42.99830078 81.05207031 44.19777344 81.05335938 45.43359375 81.0546875 C47.08766235 81.05637939 47.08766235 81.05637939 48.77514648 81.05810547 C51.5625 81.1875 51.5625 81.1875 54.5625 82.1875 C55.52320434 85.06961302 55.66831883 86.88600044 55.625 89.875 C55.61597656 90.68324219 55.60695313 91.49148438 55.59765625 92.32421875 C55.58605469 92.93910156 55.57445312 93.55398438 55.5625 94.1875 C54.0775 94.6825 54.0775 94.6825 52.5625 95.1875 C52.2325 98.8175 51.9025 102.4475 51.5625 106.1875 C50.5725 106.1875 49.5825 106.1875 48.5625 106.1875 C48.2325 108.4975 47.9025 110.8075 47.5625 113.1875 C46.0775 112.6925 46.0775 112.6925 44.5625 112.1875 C44.2325 114.1675 43.9025 116.1475 43.5625 118.1875 C42.0775 118.6825 42.0775 118.6825 40.5625 119.1875 C40.294375 119.8475 40.02625 120.5075 39.75 121.1875 C39.1621875 122.1775 39.1621875 122.1775 38.5625 123.1875 C35.4375 123.9375 35.4375 123.9375 32.5625 124.1875 C32.5625 125.1775 32.5625 126.1675 32.5625 127.1875 C31.0775 127.6825 31.0775 127.6825 29.5625 128.1875 C28.9025 129.1775 28.2425 130.1675 27.5625 131.1875 C23.9375 131.875 23.9375 131.875 20.5625 132.1875 C20.5625 132.5175 20.5625 132.8475 20.5625 133.1875 C6.7025 133.1875 -7.1575 133.1875 -21.4375 133.1875 C-21.4375 132.8575 -21.4375 132.5275 -21.4375 132.1875 C-23.7475 131.8575 -26.0575 131.5275 -28.4375 131.1875 C-28.4375 130.1975 -28.4375 129.2075 -28.4375 128.1875 C-30.4175 127.8575 -32.3975 127.5275 -34.4375 127.1875 C-34.4375 126.5275 -34.4375 125.8675 -34.4375 125.1875 C-36.4175 124.5275 -38.3975 123.8675 -40.4375 123.1875 C-40.4375 121.8675 -40.4375 120.5475 -40.4375 119.1875 C-41.7575 119.1875 -43.0775 119.1875 -44.4375 119.1875 C-44.540625 118.56875 -44.64375 117.95 -44.75 117.3125 C-45.31275373 114.82223516 -45.31275373 114.82223516 -48.4375 113.1875 C-48.79912029 111.86155895 -49.13478039 110.52811543 -49.4375 109.1875 C-50.0975 108.8575 -50.7575 108.5275 -51.4375 108.1875 C-52.16825648 105.8734378 -52.83888258 103.53921131 -53.4375 101.1875 C-54.4275 101.1875 -55.4175 101.1875 -56.4375 101.1875 C-56.9325 94.7525 -56.9325 94.7525 -57.4375 88.1875 C-58.0975 88.1875 -58.7575 88.1875 -59.4375 88.1875 C-60.23738081 83.96806916 -60.56592498 79.97975267 -60.5703125 75.6875 C-60.57160156 74.470625 -60.57289063 73.25375 -60.57421875 72 C-60.57035156 70.741875 -60.56648437 69.48375 -60.5625 68.1875 C-60.56636719 66.929375 -60.57023438 65.67125 -60.57421875 64.375 C-60.57292969 63.158125 -60.57164062 61.94125 -60.5703125 60.6875 C-60.56918457 59.5840625 -60.56805664 58.480625 -60.56689453 57.34375 C-60.43857437 54.21370662 -60.02043188 51.26250906 -59.4375 48.1875 C-58.4475 48.5175 -57.4575 48.8475 -56.4375 49.1875 C-56.4375 44.8975 -56.4375 40.6075 -56.4375 36.1875 C-55.1175 36.1875 -53.7975 36.1875 -52.4375 36.1875 C-52.31375 35.053125 -52.19 33.91875 -52.0625 32.75 C-51.85625 31.574375 -51.65 30.39875 -51.4375 29.1875 C-50.7775 28.8575 -50.1175 28.5275 -49.4375 28.1875 C-49.1075 27.3625 -48.7775 26.5375 -48.4375 25.6875 C-47.4375 23.1875 -47.4375 23.1875 -45.4375 22.1875 C-44.78536708 20.16286745 -44.78536708 20.16286745 -44.4375 18.1875 C-43.1175 17.8575 -41.7975 17.5275 -40.4375 17.1875 C-40.1075 15.8675 -39.7775 14.5475 -39.4375 13.1875 C-37.4575 12.8575 -35.4775 12.5275 -33.4375 12.1875 C-33.4375 11.1975 -33.4375 10.2075 -33.4375 9.1875 C-31.7875 9.1875 -30.1375 9.1875 -28.4375 9.1875 C-28.4375 7.8675 -28.4375 6.5475 -28.4375 5.1875 C-24.8075 4.8575 -21.1775 4.5275 -17.4375 4.1875 C-17.1075 3.1975 -16.7775 2.2075 -16.4375 1.1875 C-11.15917974 -0.57194009 -5.52395495 0.00286067 0 0 Z " fill="#1C242A" transform="translate(775.4375,706.8125)"/>
<path d="M0 0 C1.29744141 -0.00128906 2.59488281 -0.00257813 3.93164062 -0.00390625 C4.94665649 -0.00076416 4.94665649 -0.00076416 5.98217773 0.00244141 C8.0539479 0.00780048 10.12550214 0.00248732 12.19726562 -0.00390625 C13.49341797 -0.00261719 14.78957031 -0.00132812 16.125 0 C17.92046265 0.00169189 17.92046265 0.00169189 19.75219727 0.00341797 C22.49609375 0.1328125 22.49609375 0.1328125 23.49609375 1.1328125 C23.59426583 2.73738441 23.62241296 4.34628524 23.62307739 5.95385742 C23.62730713 7.51878433 23.62730713 7.51878433 23.63162231 9.11532593 C23.62858597 10.84681381 23.62858597 10.84681381 23.62548828 12.61328125 C23.62811676 14.42525497 23.62811676 14.42525497 23.63079834 16.27383423 C23.63445653 19.59607204 23.63358343 22.91824793 23.63041925 26.24048233 C23.62789527 29.71004574 23.6302333 33.17960642 23.63180542 36.64916992 C23.633627 42.47673012 23.6312211 48.30427766 23.62646484 54.13183594 C23.62102224 60.87842542 23.62278491 67.62498469 23.62829125 74.37157345 C23.6328227 80.15415424 23.63347277 85.93672591 23.63085258 91.7193079 C23.62928998 95.17732806 23.62909557 98.63533401 23.63238907 102.09335327 C23.63580214 105.94636214 23.63107752 109.79933689 23.62548828 113.65234375 C23.62751251 114.80666901 23.62953674 115.96099426 23.63162231 117.15029907 C23.62880249 118.19358368 23.62598267 119.23686829 23.62307739 120.31176758 C23.62251185 121.68006462 23.62251185 121.68006462 23.62193489 123.07600403 C23.49609375 125.1328125 23.49609375 125.1328125 22.49609375 126.1328125 C20.42347299 126.22048362 18.34789081 126.23977123 16.2734375 126.23046875 C14.38334961 126.22563477 14.38334961 126.22563477 12.45507812 126.22070312 C11.11458266 126.21234653 9.77408787 126.20388157 8.43359375 126.1953125 C7.08919433 126.1902991 5.74479315 126.18573592 4.40039062 126.18164062 C1.09891434 126.16980738 -2.20247428 126.15332221 -5.50390625 126.1328125 C-5.83390625 124.4828125 -6.16390625 122.8328125 -6.50390625 121.1328125 C-7.04015625 121.9371875 -7.57640625 122.7415625 -8.12890625 123.5703125 C-10.93495994 126.59789674 -12.47215819 126.85792059 -16.50390625 127.1328125 C-16.50390625 127.4628125 -16.50390625 127.7928125 -16.50390625 128.1328125 C-20.70310862 128.18234937 -24.90215494 128.21859661 -29.1015625 128.24267578 C-30.52932703 128.25271677 -31.95707108 128.26635231 -33.38476562 128.28369141 C-35.44015566 128.30802402 -37.49527317 128.31931452 -39.55078125 128.328125 C-41.40461426 128.34383545 -41.40461426 128.34383545 -43.29589844 128.35986328 C-46.34028216 128.1443932 -48.00994749 127.83759115 -50.50390625 126.1328125 C-50.99890625 125.1428125 -50.99890625 125.1428125 -51.50390625 124.1328125 C-52.47328125 123.6790625 -53.44265625 123.2253125 -54.44140625 122.7578125 C-57.7108295 121.02301649 -58.14309349 120.37782753 -59.50390625 117.1328125 C-60.49390625 116.4728125 -61.48390625 115.8128125 -62.50390625 115.1328125 C-63.69140625 112.5078125 -63.69140625 112.5078125 -64.50390625 110.1328125 C-64.83390625 110.1328125 -65.16390625 110.1328125 -65.50390625 110.1328125 C-65.64828125 109.0396875 -65.79265625 107.9465625 -65.94140625 106.8203125 C-66.38678729 103.20158263 -66.38678729 103.20158263 -67.50390625 100.1328125 C-68.98890625 100.6278125 -68.98890625 100.6278125 -70.50390625 101.1328125 C-70.50390625 87.2728125 -70.50390625 73.4128125 -70.50390625 59.1328125 C-69.18390625 58.4728125 -67.86390625 57.8128125 -66.50390625 57.1328125 C-65.6852044 53.57074589 -65.6852044 53.57074589 -65.50390625 50.1328125 C-64.84390625 50.1328125 -64.18390625 50.1328125 -63.50390625 50.1328125 C-62.84390625 48.1528125 -62.18390625 46.1728125 -61.50390625 44.1328125 C-60.51390625 44.1328125 -59.52390625 44.1328125 -58.50390625 44.1328125 C-58.50390625 42.4828125 -58.50390625 40.8328125 -58.50390625 39.1328125 C-57.01890625 38.6378125 -57.01890625 38.6378125 -55.50390625 38.1328125 C-54.84390625 37.4728125 -54.18390625 36.8128125 -53.50390625 36.1328125 C-52.84390625 36.4628125 -52.18390625 36.7928125 -51.50390625 37.1328125 C-51.50390625 36.1428125 -51.50390625 35.1528125 -51.50390625 34.1328125 C-49.85390625 34.1328125 -48.20390625 34.1328125 -46.50390625 34.1328125 C-46.17390625 32.8128125 -45.84390625 31.4928125 -45.50390625 30.1328125 C-40.98327235 30.05874733 -36.46299025 30.00425205 -31.94189453 29.96801758 C-30.40342051 29.95291539 -28.86498964 29.93243204 -27.32666016 29.90649414 C-25.11740484 29.87017176 -22.90871777 29.85310131 -20.69921875 29.83984375 C-19.6647612 29.81661797 -19.6647612 29.81661797 -18.60940552 29.79292297 C-16.66845703 29.79223633 -16.66845703 29.79223633 -13.50390625 30.1328125 C-12.84390625 31.1228125 -12.18390625 32.1128125 -11.50390625 33.1328125 C-10.51390625 33.4628125 -9.52390625 33.7928125 -8.50390625 34.1328125 C-8.50390625 23.2428125 -8.50390625 12.3528125 -8.50390625 1.1328125 C-5.64555139 -0.29636493 -3.19132906 0.00300441 0 0 Z M-27.50390625 56.1328125 C-29.62890625 56.7578125 -29.62890625 56.7578125 -31.50390625 57.1328125 C-31.50390625 57.7928125 -31.50390625 58.4528125 -31.50390625 59.1328125 C-32.49390625 59.1328125 -33.48390625 59.1328125 -34.50390625 59.1328125 C-35.16390625 61.1128125 -35.82390625 63.0928125 -36.50390625 65.1328125 C-37.16390625 65.1328125 -37.82390625 65.1328125 -38.50390625 65.1328125 C-38.50390625 74.0428125 -38.50390625 82.9528125 -38.50390625 92.1328125 C-37.84390625 92.4628125 -37.18390625 92.7928125 -36.50390625 93.1328125 C-35.77314977 95.4468747 -35.10252367 97.78110119 -34.50390625 100.1328125 C-33.51390625 100.1328125 -32.52390625 100.1328125 -31.50390625 100.1328125 C-31.50390625 100.7928125 -31.50390625 101.4528125 -31.50390625 102.1328125 C-29.255259 102.35527225 -27.00488002 102.56027807 -24.75390625 102.7578125 C-23.5009375 102.87382813 -22.24796875 102.98984375 -20.95703125 103.109375 C-17.65851411 103.13176313 -16.14731052 103.01912526 -13.50390625 101.1328125 C-13.17390625 100.4728125 -12.84390625 99.8128125 -12.50390625 99.1328125 C-11.01890625 98.6378125 -11.01890625 98.6378125 -9.50390625 98.1328125 C-8.15299097 95.43098195 -8.16532567 93.01473044 -7.94140625 90.0078125 C-7.85761719 88.91210938 -7.77382813 87.81640625 -7.6875 86.6875 C-7.59662109 85.42292969 -7.59662109 85.42292969 -7.50390625 84.1328125 C-7.17390625 84.1328125 -6.84390625 84.1328125 -6.50390625 84.1328125 C-6.50390625 80.8328125 -6.50390625 77.5328125 -6.50390625 74.1328125 C-6.83390625 74.1328125 -7.16390625 74.1328125 -7.50390625 74.1328125 C-7.83390625 70.1728125 -8.16390625 66.2128125 -8.50390625 62.1328125 C-9.82390625 61.8028125 -11.14390625 61.4728125 -12.50390625 61.1328125 C-12.50390625 59.8128125 -12.50390625 58.4928125 -12.50390625 57.1328125 C-14.81390625 57.1328125 -17.12390625 57.1328125 -19.50390625 57.1328125 C-19.83390625 56.1428125 -20.16390625 55.1528125 -20.50390625 54.1328125 C-24.45848473 53.78457443 -24.45848473 53.78457443 -27.50390625 56.1328125 Z " fill="#1C242A" transform="translate(644.50390625,711.8671875)"/>
<path d="M0 0 C5.94479629 -0.07401579 11.88932593 -0.12853813 17.83447266 -0.16479492 C19.85795766 -0.17990526 21.8814098 -0.20039437 23.90478516 -0.22631836 C26.80900165 -0.26260328 29.71278615 -0.27970355 32.6171875 -0.29296875 C33.52556366 -0.30845261 34.43393982 -0.32393646 35.36984253 -0.33988953 C36.21056305 -0.34011612 37.05128357 -0.34034271 37.91748047 -0.34057617 C39.03000687 -0.35056892 39.03000687 -0.35056892 40.16500854 -0.36076355 C40.77055573 -0.24171158 41.37610291 -0.12265961 42 0 C42.99 1.485 42.99 1.485 44 3 C44.99 3.33 45.98 3.66 47 4 C50 5 50 5 52 8 C52.99 8.33 53.98 8.66 55 9 C55.495 11.97 55.495 11.97 56 15 C56.99 14.67 57.98 14.34 59 14 C59.495 18.95 59.495 18.95 60 24 C61.485 24.495 61.485 24.495 63 25 C63.02312545 34.10959165 63.04091612 43.21917326 63.05181217 52.3287878 C63.05704056 56.55831371 63.0641374 60.7878196 63.07543945 65.01733398 C63.08626991 69.09568543 63.09227717 73.17401757 63.09487724 77.25238228 C63.09673121 78.81177639 63.10035127 80.3711694 63.10573006 81.93055534 C63.11294262 84.10729162 63.11399085 86.28394714 63.11352539 88.46069336 C63.115746 89.70201523 63.11796661 90.9433371 63.12025452 92.22227478 C63 95 63 95 62 96 C59.78144736 96.08783542 57.56011504 96.10694609 55.33984375 96.09765625 C54.34314415 96.09553383 54.34314415 96.09553383 53.3263092 96.09336853 C51.19666101 96.08775518 49.06711661 96.07520054 46.9375 96.0625 C45.49674631 96.05748671 44.05599097 96.05292351 42.61523438 96.04882812 C39.07678898 96.03778145 35.53840461 96.02050792 32 96 C32 94.35 32 92.7 32 91 C28.75150023 92.72226496 28.75150023 92.72226496 28 96 C24.535 96.495 24.535 96.495 21 97 C21 97.33 21 97.66 21 98 C12.09 98 3.18 98 -6 98 C-6 97.67 -6 97.34 -6 97 C-6.94875 96.855625 -7.8975 96.71125 -8.875 96.5625 C-12 96 -12 96 -14 95 C-14 94.01 -14 93.02 -14 92 C-14.639375 91.896875 -15.27875 91.79375 -15.9375 91.6875 C-16.618125 91.460625 -17.29875 91.23375 -18 91 C-18.33 90.01 -18.66 89.02 -19 88 C-19.495 87.54625 -19.99 87.0925 -20.5 86.625 C-22.43309736 84.53081119 -22.62452796 82.77849308 -23 80 C-23.99 80 -24.98 80 -26 80 C-26 73.07 -26 66.14 -26 59 C-24.515 58.505 -24.515 58.505 -23 58 C-21.77030122 54.48809191 -21.77030122 54.48809191 -21 51 C-20.34 51 -19.68 51 -19 51 C-18.67 49.68 -18.34 48.36 -18 47 C-16.02 46.505 -16.02 46.505 -14 46 C-14 45.01 -14 44.02 -14 43 C-12.88625 42.9175 -11.7725 42.835 -10.625 42.75 C-9.42875 42.5025 -8.2325 42.255 -7 42 C-6.34 40.68 -5.68 39.36 -5 38 C0.61 38 6.22 38 12 38 C12 37.34 12 36.68 12 36 C11.01 35.505 11.01 35.505 10 35 C12.34852528 33.82573736 13.73774065 33.88491827 16.3515625 33.90234375 C17.62773437 33.90717773 17.62773437 33.90717773 18.9296875 33.91210938 C19.81914062 33.92048828 20.70859375 33.92886719 21.625 33.9375 C22.5221875 33.94201172 23.419375 33.94652344 24.34375 33.95117188 C26.56256648 33.96297409 28.78125018 33.97943845 31 34 C31 31.69 31 29.38 31 27 C30.01 27 29.02 27 28 27 C27.505 25.515 27.505 25.515 27 24 C20.07 23.505 20.07 23.505 13 23 C13 23.99 13 24.98 13 26 C12.01 26.33 11.02 26.66 10 27 C9.855625 28.134375 9.71125 29.26875 9.5625 30.4375 C9 34 9 34 8 35 C5.30345146 35.07319621 2.63308542 35.09242537 -0.0625 35.0625 C-1.20041992 35.05573242 -1.20041992 35.05573242 -2.36132812 35.04882812 C-4.24091871 35.0370068 -6.12046899 35.01907078 -8 35 C-7.01 34.505 -7.01 34.505 -6 34 C-6 33.34 -6 32.68 -6 32 C-6.74765625 32.02320313 -7.4953125 32.04640625 -8.265625 32.0703125 C-9.25046875 32.08835937 -10.2353125 32.10640625 -11.25 32.125 C-12.22453125 32.14820313 -13.1990625 32.17140625 -14.203125 32.1953125 C-17.0196498 31.99862781 -18.60949036 31.44568916 -21 30 C-21 29.01 -21 28.02 -21 27 C-20.34 27 -19.68 27 -19 27 C-18.67 23.37 -18.34 19.74 -18 16 C-17.01 15.67 -16.02 15.34 -15 15 C-14.26676204 12.98491642 -14.26676204 12.98491642 -14 11 C-13.01 11 -12.02 11 -11 11 C-11 10.01 -11 9.02 -11 8 C-9.68 7.34 -8.36 6.68 -7 6 C-7 5.34 -7 4.68 -7 4 C-4.36 3.67 -1.72 3.34 1 3 C0.67 2.01 0.34 1.02 0 0 Z M10 61 C8.02 61.99 8.02 61.99 6 63 C6 65.97 6 68.94 6 72 C11.96674616 73.32594359 17.92583615 73.0884587 24 73 C24.33 72.34 24.66 71.68 25 71 C25.66 71 26.32 71 27 71 C27.66 70.01 28.32 69.02 29 68 C29.66 68 30.32 68 31 68 C32.1577506 64.52674819 32.06866652 61.63932552 32 58 C28.89601022 57.91289711 25.79233452 57.85957691 22.6875 57.8125 C21.80642578 57.78736328 20.92535156 57.76222656 20.01757812 57.73632812 C19.17001953 57.72666016 18.32246094 57.71699219 17.44921875 57.70703125 C16.66893311 57.6913208 15.88864746 57.67561035 15.0847168 57.65942383 C12.44793078 58.09019049 11.77582218 59.06158803 10 61 Z " fill="#1C242A" transform="translate(142,742)"/>
<path d="M0 0 C1.1653125 -0.00128906 2.330625 -0.00257813 3.53125 -0.00390625 C4.7584375 -0.00003906 5.985625 0.00382813 7.25 0.0078125 C9.09078125 0.00201172 9.09078125 0.00201172 10.96875 -0.00390625 C12.71671875 -0.00197266 12.71671875 -0.00197266 14.5 0 C15.57765625 0.00112793 16.6553125 0.00225586 17.765625 0.00341797 C20.25 0.1328125 20.25 0.1328125 21.25 1.1328125 C21.29092937 3.46578683 21.29241723 5.79986475 21.25 8.1328125 C22.24 8.1328125 23.23 8.1328125 24.25 8.1328125 C24.25 7.1428125 24.25 6.1528125 24.25 5.1328125 C26.89738916 3.672184 28.14448334 3.1328125 31.25 3.1328125 C31.25 2.4728125 31.25 1.8128125 31.25 1.1328125 C30.59 0.8028125 29.93 0.4728125 29.25 0.1328125 C40.47 0.1328125 51.69 0.1328125 63.25 0.1328125 C63.25 0.7928125 63.25 1.4528125 63.25 2.1328125 C64.24 2.4628125 65.23 2.7928125 66.25 3.1328125 C66.25 3.7928125 66.25 4.4528125 66.25 5.1328125 C67.57 5.1328125 68.89 5.1328125 70.25 5.1328125 C70.745 6.6178125 70.745 6.6178125 71.25 8.1328125 C71.745 8.6071875 72.24 9.0815625 72.75 9.5703125 C74.25 11.1328125 74.25 11.1328125 74.75 13.2578125 C74.915 13.8765625 75.08 14.4953125 75.25 15.1328125 C76.24 15.4628125 77.23 15.7928125 78.25 16.1328125 C77.92 42.5328125 77.59 68.9328125 77.25 96.1328125 C67.35 96.1328125 57.45 96.1328125 47.25 96.1328125 C45.83302807 93.29886863 46.13054071 90.92407512 46.13647461 87.75537109 C46.13632858 87.10158981 46.13618256 86.44780853 46.1360321 85.7742157 C46.13672964 83.60986023 46.1445146 81.44559046 46.15234375 79.28125 C46.15420849 77.78195238 46.15563213 76.28265416 46.15663147 74.78335571 C46.16045221 70.83449628 46.17027872 66.88567354 46.18133545 62.93682861 C46.19155909 58.90841163 46.19613113 54.87998872 46.20117188 50.8515625 C46.21190138 42.94529377 46.2294946 35.03906193 46.25 27.1328125 C40.31 27.1328125 34.37 27.1328125 28.25 27.1328125 C28.25 28.4528125 28.25 29.7728125 28.25 31.1328125 C27.26 31.7928125 26.27 32.4528125 25.25 33.1328125 C24.77846598 35.8304766 24.77846598 35.8304766 24.83349609 39.03540039 C24.81692963 40.27330826 24.80036316 41.51121613 24.78329468 42.78663635 C24.77984157 44.1429134 24.77655994 45.4991909 24.7734375 46.85546875 C24.75913413 48.24028553 24.74337832 49.62508801 24.72622681 51.00987244 C24.68431543 54.657452 24.65935633 58.30494295 24.63873291 61.95269775 C24.6029541 67.79545663 24.5420685 73.637997 24.48024368 79.48052788 C24.46109326 81.52632972 24.44940622 83.57207316 24.43881226 85.61793518 C24.42341904 87.47006874 24.42341904 87.47006874 24.40771484 89.35961914 C24.40121918 90.45278946 24.39472351 91.54595978 24.38803101 92.67225647 C24.25 95.1328125 24.25 95.1328125 23.25 96.1328125 C21.03144736 96.22064792 18.81011504 96.23975859 16.58984375 96.23046875 C15.59314415 96.22834633 15.59314415 96.22834633 14.5763092 96.22618103 C12.44666101 96.22056768 10.31711661 96.20801304 8.1875 96.1953125 C6.74674631 96.19029921 5.30599097 96.18573601 3.86523438 96.18164062 C0.32678898 96.17059395 -3.21159539 96.15332042 -6.75 96.1328125 C-6.77312154 83.76362535 -6.79091412 71.39444331 -6.80181217 59.02523899 C-6.80704141 53.28236188 -6.8141398 47.53949949 -6.82543945 41.79663086 C-6.83626687 36.25941255 -6.84227652 30.72220846 -6.84487724 25.18498039 C-6.84673176 23.06736973 -6.85035286 20.94975988 -6.85573006 18.83215523 C-6.86293856 15.87709976 -6.86399102 12.92210379 -6.86352539 9.96704102 C-6.86712067 9.08231613 -6.87071594 8.19759125 -6.87442017 7.28605652 C-6.8625663 0.38137233 -6.83577871 0.00715467 0 0 Z " fill="#1C242A" transform="translate(485.75,741.8671875)"/>
<path d="M0 0 C13.41226093 -0.02254861 26.82450938 -0.04091369 40.23678493 -0.05181217 C46.46393472 -0.0570416 52.69107092 -0.06414033 58.91821289 -0.07543945 C64.92226865 -0.08626621 70.92631129 -0.09227638 76.93037605 -0.09487724 C79.2266161 -0.09673188 81.52285539 -0.10035321 83.81908989 -0.10573006 C87.02320814 -0.11293768 90.2272715 -0.11399106 93.43139648 -0.11352539 C94.87069267 -0.1189183 94.87069267 -0.1189183 96.33906555 -0.12442017 C97.20709808 -0.1230455 98.07513062 -0.12167084 98.96946716 -0.12025452 C99.72810279 -0.12117631 100.48673841 -0.1220981 101.268363 -0.12304783 C103 0 103 0 104 1 C104.25256877 4.97275815 104.18522451 8.95766175 104.1875 12.9375 C104.19974609 14.06091797 104.21199219 15.18433594 104.22460938 16.34179688 C104.22654297 17.41365234 104.22847656 18.48550781 104.23046875 19.58984375 C104.23457764 20.57847412 104.23868652 21.56710449 104.24291992 22.58569336 C104 25 104 25 102 27 C99.4422752 27.18734807 96.99487589 27.25574143 94.4375 27.23046875 C93.69040771 27.23001053 92.94331543 27.22955231 92.17358398 27.2290802 C90.59324557 27.22605775 89.01291014 27.21817164 87.43261719 27.20581055 C85.0096586 27.1875727 82.58708251 27.18530073 80.1640625 27.18554688 C78.63020502 27.18063092 77.09635014 27.17480226 75.5625 27.16796875 C74.83538818 27.16685593 74.10827637 27.1657431 73.35913086 27.16459656 C68.23214685 27.11607343 68.23214685 27.11607343 66 26 C66 59 66 92 66 126 C55.77 126 45.54 126 35 126 C35 93 35 60 35 26 C34.01 26.33 33.02 26.66 32 27 C29.5589224 27.0845387 27.14740787 27.11605786 24.70703125 27.09765625 C23.64798836 27.09553383 23.64798836 27.09553383 22.56755066 27.09336853 C20.31582374 27.08777764 18.06419679 27.07522688 15.8125 27.0625 C14.28450665 27.05748382 12.75651173 27.05292112 11.22851562 27.04882812 C7.48560772 27.0386627 3.74291557 27.01908569 0 27 C0 18.09 0 9.18 0 0 Z " fill="#1C242A" transform="translate(32,712)"/>
<path d="M0 0 C1.25159912 0.00523682 2.50319824 0.01047363 3.79272461 0.01586914 C4.78942421 0.01799156 4.78942421 0.01799156 5.80625916 0.02015686 C7.93590735 0.02577021 10.06545175 0.03832485 12.19506836 0.05102539 C13.63582205 0.05603868 15.07657739 0.06060188 16.51733398 0.06469727 C20.05577938 0.07574394 23.59416375 0.09301747 27.13256836 0.11352539 C28.36795561 2.58429989 28.25838796 4.20820076 28.259552 6.97216797 C28.26237183 7.99855377 28.26519165 9.02493958 28.26809692 10.08242798 C28.26607269 11.21288544 28.26404846 12.3433429 28.26196289 13.50805664 C28.26371521 14.69507172 28.26546753 15.88208679 28.26727295 17.10507202 C28.27092721 20.36532815 28.27006051 23.62554387 28.26689386 26.88579941 C28.26436676 30.29349606 28.26670878 33.70118996 28.26828003 37.10888672 C28.2701007 42.83211758 28.2676981 48.55533555 28.26293945 54.27856445 C28.25749703 60.90075495 28.25925976 67.52291466 28.26476586 74.14510441 C28.26929991 79.82496181 28.2699461 85.50480992 28.26732719 91.18466854 C28.26576603 94.57954857 28.26556627 97.97441411 28.26886368 101.36929321 C28.27139139 105.1525483 28.26754788 108.93574353 28.26196289 112.71899414 C28.26398712 113.8494516 28.26601135 114.97990906 28.26809692 116.1446228 C28.2652771 117.17100861 28.26245728 118.19739441 28.259552 119.25488281 C28.25917498 120.15011154 28.25879795 121.04534027 28.2584095 121.96769714 C28.13256836 124.11352539 28.13256836 124.11352539 27.13256836 126.11352539 C17.23256836 126.11352539 7.33256836 126.11352539 -2.86743164 126.11352539 C-4.10817314 123.63204239 -3.99325718 121.98668642 -3.99441528 119.21018982 C-3.99723511 118.1739447 -4.00005493 117.13769958 -4.00296021 116.0700531 C-4.00093597 114.92867386 -3.99891174 113.78729462 -3.99682617 112.61132812 C-3.99857849 111.41295319 -4.00033081 110.21457825 -4.00213623 108.97988892 C-4.00579038 105.68870082 -4.00492401 102.39757534 -4.00175714 99.10639071 C-3.99923052 95.66752966 -4.00157188 92.22867134 -4.00314331 88.78981018 C-4.00496387 83.01530475 -4.00256141 77.24081209 -3.99780273 71.46630859 C-3.99235776 64.78161421 -3.99412493 58.09695031 -3.99962914 51.41225666 C-4.00416042 45.68061068 -4.00481082 39.94897389 -4.00219047 34.2173267 C-4.00062811 30.79062052 -4.00043286 27.3639287 -4.00372696 23.93722343 C-4.0071398 20.12024618 -4.0024157 16.30330335 -3.99682617 12.48632812 C-3.9988504 11.34292465 -4.00087463 10.19952118 -4.00296021 9.02146912 C-4.00014038 7.98804382 -3.99732056 6.95461853 -3.99441528 5.88987732 C-3.99403826 4.98635245 -3.99366123 4.08282759 -3.99327278 3.15192318 C-3.79331992 -0.08694983 -3.29366233 0.13040042 0 0 Z " fill="#1C242A" transform="translate(264.867431640625,711.886474609375)"/>
<path d="M0 0 C3.96930989 -0.02465881 7.93859034 -0.04284023 11.90795898 -0.05493164 C13.25920386 -0.05997057 14.61044326 -0.06680177 15.96166992 -0.07543945 C17.90020434 -0.08752419 19.838778 -0.09269828 21.77734375 -0.09765625 C23.52905884 -0.10551147 23.52905884 -0.10551147 25.31616211 -0.11352539 C28 0 28 0 29 1 C29.09526806 3.95246354 29.12552452 6.88148421 29.11352539 9.83422852 C29.11367142 10.76096375 29.11381744 11.68769897 29.1139679 12.64251709 C29.11326838 15.72133687 29.10547421 18.80009697 29.09765625 21.87890625 C29.09579221 24.00740018 29.09436824 26.13589453 29.09336853 28.26438904 C29.08954228 33.8786232 29.07971108 39.49283168 29.06866455 45.10705566 C29.05845273 50.83113253 29.0538714 56.55521353 29.04882812 62.27929688 C29.03808891 73.51954256 29.0210112 84.75976915 29 96 C24.74585377 96.02465622 20.49174502 96.04283899 16.23754883 96.05493164 C14.78929927 96.05997101 13.34105483 96.06680253 11.89282227 96.07543945 C9.81525412 96.08752247 7.73775303 96.09323211 5.66015625 96.09765625 C4.40855713 96.10289307 3.15695801 96.10812988 1.86743164 96.11352539 C-1 96 -1 96 -2 95 C-2.10586487 92.19089012 -2.14677771 89.40623634 -2.14526367 86.59643555 C-2.14862228 85.71513977 -2.1519809 84.83384399 -2.15544128 83.92584229 C-2.16498347 80.99612031 -2.16689618 78.06645532 -2.16796875 75.13671875 C-2.17117962 73.10748775 -2.17454356 71.07825699 -2.17805481 69.04902649 C-2.18405465 64.78764306 -2.18589389 60.52627994 -2.18530273 56.26489258 C-2.18520119 50.8003725 -2.19884165 45.33598258 -2.21607494 39.87149334 C-2.22718744 35.67736715 -2.22922215 31.48327247 -2.22869301 27.28913307 C-2.22987471 25.27447881 -2.2343071 23.25982377 -2.24202538 21.24518394 C-2.25180787 18.42727912 -2.24895382 15.60965729 -2.24291992 12.79174805 C-2.24853943 11.95678299 -2.25415894 11.12181793 -2.25994873 10.2615509 C-2.22186406 3.27253404 -2.22186406 3.27253404 0 0 Z " fill="#1C242A" transform="translate(435,742)"/>
<path d="M0 0 C1.21171875 0.00322266 2.4234375 0.00644531 3.671875 0.00976562 C4.94289062 0.01814453 6.21390625 0.02652344 7.5234375 0.03515625 C8.8021875 0.03966797 10.0809375 0.04417969 11.3984375 0.04882812 C14.56515042 0.06064422 17.73177106 0.0771181 20.8984375 0.09765625 C23.57473637 4.03951719 23.17211533 8.31929127 23.14135742 12.8894043 C23.14325577 13.77595703 23.14515411 14.66250977 23.14710999 15.57592773 C23.15081237 18.50383366 23.14012325 21.43149115 23.12890625 24.359375 C23.1277143 26.39150463 23.12726132 28.42363481 23.1275177 30.45576477 C23.1259539 34.71183731 23.11767031 38.9678256 23.10424805 43.22387695 C23.08722597 48.6919388 23.08343468 54.15990834 23.08419323 59.62799358 C23.08392199 63.82199492 23.07844881 68.01597589 23.07119179 72.20997047 C23.06800007 74.22709817 23.06603655 76.24422818 23.06529808 78.26135826 C23.06314166 81.0723099 23.05441361 83.88316148 23.04370117 86.6940918 C23.04438095 87.95564842 23.04438095 87.95564842 23.04507446 89.24269104 C23.01291412 94.98317963 23.01291412 94.98317963 21.8984375 96.09765625 C11.9984375 96.09765625 2.0984375 96.09765625 -8.1015625 96.09765625 C-8.1015625 64.74765625 -8.1015625 33.39765625 -8.1015625 1.09765625 C-5.33538687 -0.28543156 -3.0913825 -0.01444571 0 0 Z " fill="#1C242A" transform="translate(224.1015625,741.90234375)"/>
<path d="M0 0 C1.25159912 0.00523682 2.50319824 0.01047363 3.79272461 0.01586914 C4.78942421 0.01799156 4.78942421 0.01799156 5.80625916 0.02015686 C7.93590735 0.02577021 10.06545175 0.03832485 12.19506836 0.05102539 C13.63582205 0.05603868 15.07657739 0.06060188 16.51733398 0.06469727 C20.05581794 0.07489463 23.59407649 0.09446709 27.13256836 0.11352539 C27.13256836 9.02352539 27.13256836 17.93352539 27.13256836 27.11352539 C17.23256836 27.11352539 7.33256836 27.11352539 -2.86743164 27.11352539 C-4.16520081 24.51798705 -3.99693199 22.60647012 -4.00024414 19.70336914 C-4.0015332 18.63151367 -4.00282227 17.5596582 -4.00415039 16.45532227 C-4.0002832 15.3319043 -3.99641602 14.20848633 -3.99243164 13.05102539 C-3.99629883 11.92374023 -4.00016602 10.79645508 -4.00415039 9.63500977 C-4.00286133 8.56444336 -4.00157227 7.49387695 -4.00024414 6.39086914 C-3.99911621 5.4033667 -3.99798828 4.41586426 -3.99682617 3.3984375 C-3.80301806 -0.02392119 -3.47764332 0.13768447 0 0 Z " fill="#1C242A" transform="translate(436.867431640625,711.886474609375)"/>
<path d="M0 0 C4.25421714 -0.0229132 8.50822157 -0.04283889 12.76245117 -0.05493164 C14.21070073 -0.05997101 15.65894517 -0.06680253 17.10717773 -0.07543945 C19.18474588 -0.08752247 21.26224697 -0.09323211 23.33984375 -0.09765625 C24.59144287 -0.10289307 25.84304199 -0.10812988 27.13256836 -0.11352539 C30 0 30 0 31 1 C31.09949077 2.75685674 31.1308026 4.51767333 31.1328125 6.27734375 C31.13474609 7.88319336 31.13474609 7.88319336 31.13671875 9.52148438 C31.13285156 10.64876953 31.12898438 11.77605469 31.125 12.9375 C31.13080078 14.62262695 31.13080078 14.62262695 31.13671875 16.34179688 C31.13542969 17.41365234 31.13414062 18.48550781 31.1328125 19.58984375 C31.13168457 20.57847412 31.13055664 21.56710449 31.12939453 22.58569336 C31 25 31 25 30 27 C20.1 27 10.2 27 0 27 C0 18.09 0 9.18 0 0 Z " fill="#1C242A" transform="translate(216,712)"/>
<path d="M0 0 C5.94 0 11.88 0 18 0 C17.67 0.66 17.34 1.32 17 2 C11.72 2 6.44 2 1 2 C0.67 1.34 0.34 0.68 0 0 Z " fill="#1C242A" transform="translate(355,742)"/>
<path d="" fill="#1C242A" transform="translate(0,0)"/>
<path d="" fill="#00B2B6" transform="translate(0,0)"/>
<path d="" fill="#00A5B4" transform="translate(0,0)"/>
</svg>
