<?xml version="1.0" encoding="utf-8"?>
<!DOCTYPE svg PUBLIC "-//W3C//DTD SVG 20010904//EN" "http://www.w3.org/TR/2001/REC-SVG-20010904/DTD/svg10.dtd">
<svg xmlns="http://www.w3.org/2000/svg" xml:space="preserve" xmlns:xlink="http://www.w3.org/1999/xlink" width="999" height="999" viewBox="0 0 999 999">
<defs>
<mask id="qrmask"><g fill="#ffffff">
<g transform="translate(270,54) scale(4.5)"><circle cx="3" cy="3" r="3"/></g>
<g transform="translate(324,54) scale(4.5)"><circle cx="3" cy="3" r="3"/></g>
<g transform="translate(378,54) scale(4.5)"><circle cx="3" cy="3" r="3"/></g>
<g transform="translate(459,54) scale(4.5)"><circle cx="3" cy="3" r="3"/></g>
<g transform="translate(513,54) scale(4.5)"><circle cx="3" cy="3" r="3"/></g>
<g transform="translate(567,54) scale(4.5)"><circle cx="3" cy="3" r="3"/></g>
<g transform="translate(594,54) scale(4.5)"><circle cx="3" cy="3" r="3"/></g>
<g transform="translate(675,54) scale(4.5)"><circle cx="3" cy="3" r="3"/></g>
<g transform="translate(702,54) scale(4.5)"><circle cx="3" cy="3" r="3"/></g>
<g transform="translate(270,81) scale(4.5)"><circle cx="3" cy="3" r="3"/></g>
<g transform="translate(378,81) scale(4.5)"><circle cx="3" cy="3" r="3"/></g>
<g transform="translate(405,81) scale(4.5)"><circle cx="3" cy="3" r="3"/></g>
<g transform="translate(459,81) scale(4.5)"><circle cx="3" cy="3" r="3"/></g>
<g transform="translate(486,81) scale(4.5)"><circle cx="3" cy="3" r="3"/></g>
<g transform="translate(513,81) scale(4.5)"><circle cx="3" cy="3" r="3"/></g>
<g transform="translate(594,81) scale(4.5)"><circle cx="3" cy="3" r="3"/></g>
<g transform="translate(621,81) scale(4.5)"><circle cx="3" cy="3" r="3"/></g>
<g transform="translate(648,81) scale(4.5)"><circle cx="3" cy="3" r="3"/></g>
<g transform="translate(702,81) scale(4.5)"><circle cx="3" cy="3" r="3"/></g>
<g transform="translate(270,108) scale(4.5)"><circle cx="3" cy="3" r="3"/></g>
<g transform="translate(297,108) scale(4.5)"><circle cx="3" cy="3" r="3"/></g>
<g transform="translate(405,108) scale(4.5)"><circle cx="3" cy="3" r="3"/></g>
<g transform="translate(540,108) scale(4.5)"><circle cx="3" cy="3" r="3"/></g>
<g transform="translate(594,108) scale(4.5)"><circle cx="3" cy="3" r="3"/></g>
<g transform="translate(621,108) scale(4.5)"><circle cx="3" cy="3" r="3"/></g>
<g transform="translate(675,108) scale(4.5)"><circle cx="3" cy="3" r="3"/></g>
<g transform="translate(702,108) scale(4.5)"><circle cx="3" cy="3" r="3"/></g>
<g transform="translate(297,135) scale(4.5)"><circle cx="3" cy="3" r="3"/></g>
<g transform="translate(351,135) scale(4.5)"><circle cx="3" cy="3" r="3"/></g>
<g transform="translate(378,135) scale(4.5)"><circle cx="3" cy="3" r="3"/></g>
<g transform="translate(459,135) scale(4.5)"><circle cx="3" cy="3" r="3"/></g>
<g transform="translate(513,135) scale(4.5)"><circle cx="3" cy="3" r="3"/></g>
<g transform="translate(675,135) scale(4.5)"><circle cx="3" cy="3" r="3"/></g>
<g transform="translate(702,135) scale(4.5)"><circle cx="3" cy="3" r="3"/></g>
<g transform="translate(405,162) scale(4.5)"><circle cx="3" cy="3" r="3"/></g>
<g transform="translate(459,162) scale(4.5)"><circle cx="3" cy="3" r="3"/></g>
<g transform="translate(486,162) scale(4.5)"><circle cx="3" cy="3" r="3"/></g>
<g transform="translate(567,162) scale(4.5)"><circle cx="3" cy="3" r="3"/></g>
<g transform="translate(270,189) scale(4.5)"><circle cx="3" cy="3" r="3"/></g>
<g transform="translate(351,189) scale(4.5)"><circle cx="3" cy="3" r="3"/></g>
<g transform="translate(432,189) scale(4.5)"><circle cx="3" cy="3" r="3"/></g>
<g transform="translate(567,189) scale(4.5)"><circle cx="3" cy="3" r="3"/></g>
<g transform="translate(594,189) scale(4.5)"><circle cx="3" cy="3" r="3"/></g>
<g transform="translate(621,189) scale(4.5)"><circle cx="3" cy="3" r="3"/></g>
<g transform="translate(648,189) scale(4.5)"><circle cx="3" cy="3" r="3"/></g>
<g transform="translate(675,189) scale(4.5)"><circle cx="3" cy="3" r="3"/></g>
<g transform="translate(702,189) scale(4.5)"><circle cx="3" cy="3" r="3"/></g>
<g transform="translate(270,216) scale(4.5)"><circle cx="3" cy="3" r="3"/></g>
<g transform="translate(324,216) scale(4.5)"><circle cx="3" cy="3" r="3"/></g>
<g transform="translate(378,216) scale(4.5)"><circle cx="3" cy="3" r="3"/></g>
<g transform="translate(432,216) scale(4.5)"><circle cx="3" cy="3" r="3"/></g>
<g transform="translate(486,216) scale(4.5)"><circle cx="3" cy="3" r="3"/></g>
<g transform="translate(540,216) scale(4.5)"><circle cx="3" cy="3" r="3"/></g>
<g transform="translate(594,216) scale(4.5)"><circle cx="3" cy="3" r="3"/></g>
<g transform="translate(648,216) scale(4.5)"><circle cx="3" cy="3" r="3"/></g>
<g transform="translate(702,216) scale(4.5)"><circle cx="3" cy="3" r="3"/></g>
<g transform="translate(270,243) scale(4.5)"><circle cx="3" cy="3" r="3"/></g>
<g transform="translate(324,243) scale(4.5)"><circle cx="3" cy="3" r="3"/></g>
<g transform="translate(351,243) scale(4.5)"><circle cx="3" cy="3" r="3"/></g>
<g transform="translate(405,243) scale(4.5)"><circle cx="3" cy="3" r="3"/></g>
<g transform="translate(432,243) scale(4.5)"><circle cx="3" cy="3" r="3"/></g>
<g transform="translate(486,243) scale(4.5)"><circle cx="3" cy="3" r="3"/></g>
<g transform="translate(513,243) scale(4.5)"><circle cx="3" cy="3" r="3"/></g>
<g transform="translate(567,243) scale(4.5)"><circle cx="3" cy="3" r="3"/></g>
<g transform="translate(594,243) scale(4.5)"><circle cx="3" cy="3" r="3"/></g>
<g transform="translate(621,243) scale(4.5)"><circle cx="3" cy="3" r="3"/></g>
<g transform="translate(648,243) scale(4.5)"><circle cx="3" cy="3" r="3"/></g>
<g transform="translate(675,243) scale(4.5)"><circle cx="3" cy="3" r="3"/></g>
<g transform="translate(108,270) scale(4.5)"><circle cx="3" cy="3" r="3"/></g>
<g transform="translate(135,270) scale(4.5)"><circle cx="3" cy="3" r="3"/></g>
<g transform="translate(162,270) scale(4.5)"><circle cx="3" cy="3" r="3"/></g>
<g transform="translate(216,270) scale(4.5)"><circle cx="3" cy="3" r="3"/></g>
<g transform="translate(270,270) scale(4.5)"><circle cx="3" cy="3" r="3"/></g>
<g transform="translate(351,270) scale(4.5)"><circle cx="3" cy="3" r="3"/></g>
<g transform="translate(405,270) scale(4.5)"><circle cx="3" cy="3" r="3"/></g>
<g transform="translate(459,270) scale(4.5)"><circle cx="3" cy="3" r="3"/></g>
<g transform="translate(486,270) scale(4.5)"><circle cx="3" cy="3" r="3"/></g>
<g transform="translate(567,270) scale(4.5)"><circle cx="3" cy="3" r="3"/></g>
<g transform="translate(621,270) scale(4.5)"><circle cx="3" cy="3" r="3"/></g>
<g transform="translate(675,270) scale(4.5)"><circle cx="3" cy="3" r="3"/></g>
<g transform="translate(702,270) scale(4.5)"><circle cx="3" cy="3" r="3"/></g>
<g transform="translate(729,270) scale(4.5)"><circle cx="3" cy="3" r="3"/></g>
<g transform="translate(756,270) scale(4.5)"><circle cx="3" cy="3" r="3"/></g>
<g transform="translate(783,270) scale(4.5)"><circle cx="3" cy="3" r="3"/></g>
<g transform="translate(864,270) scale(4.5)"><circle cx="3" cy="3" r="3"/></g>
<g transform="translate(891,270) scale(4.5)"><circle cx="3" cy="3" r="3"/></g>
<g transform="translate(918,270) scale(4.5)"><circle cx="3" cy="3" r="3"/></g>
<g transform="translate(81,297) scale(4.5)"><circle cx="3" cy="3" r="3"/></g>
<g transform="translate(135,297) scale(4.5)"><circle cx="3" cy="3" r="3"/></g>
<g transform="translate(270,297) scale(4.5)"><circle cx="3" cy="3" r="3"/></g>
<g transform="translate(297,297) scale(4.5)"><circle cx="3" cy="3" r="3"/></g>
<g transform="translate(324,297) scale(4.5)"><circle cx="3" cy="3" r="3"/></g>
<g transform="translate(405,297) scale(4.5)"><circle cx="3" cy="3" r="3"/></g>
<g transform="translate(459,297) scale(4.5)"><circle cx="3" cy="3" r="3"/></g>
<g transform="translate(513,297) scale(4.5)"><circle cx="3" cy="3" r="3"/></g>
<g transform="translate(567,297) scale(4.5)"><circle cx="3" cy="3" r="3"/></g>
<g transform="translate(621,297) scale(4.5)"><circle cx="3" cy="3" r="3"/></g>
<g transform="translate(675,297) scale(4.5)"><circle cx="3" cy="3" r="3"/></g>
<g transform="translate(729,297) scale(4.5)"><circle cx="3" cy="3" r="3"/></g>
<g transform="translate(756,297) scale(4.5)"><circle cx="3" cy="3" r="3"/></g>
<g transform="translate(837,297) scale(4.5)"><circle cx="3" cy="3" r="3"/></g>
<g transform="translate(864,297) scale(4.5)"><circle cx="3" cy="3" r="3"/></g>
<g transform="translate(891,297) scale(4.5)"><circle cx="3" cy="3" r="3"/></g>
<g transform="translate(918,297) scale(4.5)"><circle cx="3" cy="3" r="3"/></g>
<g transform="translate(54,324) scale(4.5)"><circle cx="3" cy="3" r="3"/></g>
<g transform="translate(108,324) scale(4.5)"><circle cx="3" cy="3" r="3"/></g>
<g transform="translate(162,324) scale(4.5)"><circle cx="3" cy="3" r="3"/></g>
<g transform="translate(216,324) scale(4.5)"><circle cx="3" cy="3" r="3"/></g>
<g transform="translate(351,324) scale(4.5)"><circle cx="3" cy="3" r="3"/></g>
<g transform="translate(459,324) scale(4.5)"><circle cx="3" cy="3" r="3"/></g>
<g transform="translate(486,324) scale(4.5)"><circle cx="3" cy="3" r="3"/></g>
<g transform="translate(513,324) scale(4.5)"><circle cx="3" cy="3" r="3"/></g>
<g transform="translate(540,324) scale(4.5)"><circle cx="3" cy="3" r="3"/></g>
<g transform="translate(567,324) scale(4.5)"><circle cx="3" cy="3" r="3"/></g>
<g transform="translate(621,324) scale(4.5)"><circle cx="3" cy="3" r="3"/></g>
<g transform="translate(702,324) scale(4.5)"><circle cx="3" cy="3" r="3"/></g>
<g transform="translate(783,324) scale(4.5)"><circle cx="3" cy="3" r="3"/></g>
<g transform="translate(837,324) scale(4.5)"><circle cx="3" cy="3" r="3"/></g>
<g transform="translate(864,324) scale(4.5)"><circle cx="3" cy="3" r="3"/></g>
<g transform="translate(891,324) scale(4.5)"><circle cx="3" cy="3" r="3"/></g>
<g transform="translate(108,351) scale(4.5)"><circle cx="3" cy="3" r="3"/></g>
<g transform="translate(135,351) scale(4.5)"><circle cx="3" cy="3" r="3"/></g>
<g transform="translate(162,351) scale(4.5)"><circle cx="3" cy="3" r="3"/></g>
<g transform="translate(243,351) scale(4.5)"><circle cx="3" cy="3" r="3"/></g>
<g transform="translate(270,351) scale(4.5)"><circle cx="3" cy="3" r="3"/></g>
<g transform="translate(351,351) scale(4.5)"><circle cx="3" cy="3" r="3"/></g>
<g transform="translate(405,351) scale(4.5)"><circle cx="3" cy="3" r="3"/></g>
<g transform="translate(432,351) scale(4.5)"><circle cx="3" cy="3" r="3"/></g>
<g transform="translate(567,351) scale(4.5)"><circle cx="3" cy="3" r="3"/></g>
<g transform="translate(621,351) scale(4.5)"><circle cx="3" cy="3" r="3"/></g>
<g transform="translate(648,351) scale(4.5)"><circle cx="3" cy="3" r="3"/></g>
<g transform="translate(702,351) scale(4.5)"><circle cx="3" cy="3" r="3"/></g>
<g transform="translate(729,351) scale(4.5)"><circle cx="3" cy="3" r="3"/></g>
<g transform="translate(864,351) scale(4.5)"><circle cx="3" cy="3" r="3"/></g>
<g transform="translate(891,351) scale(4.5)"><circle cx="3" cy="3" r="3"/></g>
<g transform="translate(54,378) scale(4.5)"><circle cx="3" cy="3" r="3"/></g>
<g transform="translate(81,378) scale(4.5)"><circle cx="3" cy="3" r="3"/></g>
<g transform="translate(216,378) scale(4.5)"><circle cx="3" cy="3" r="3"/></g>
<g transform="translate(297,378) scale(4.5)"><circle cx="3" cy="3" r="3"/></g>
<g transform="translate(351,378) scale(4.5)"><circle cx="3" cy="3" r="3"/></g>
<g transform="translate(405,378) scale(4.5)"><circle cx="3" cy="3" r="3"/></g>
<g transform="translate(486,378) scale(4.5)"><circle cx="3" cy="3" r="3"/></g>
<g transform="translate(621,378) scale(4.5)"><circle cx="3" cy="3" r="3"/></g>
<g transform="translate(702,378) scale(4.5)"><circle cx="3" cy="3" r="3"/></g>
<g transform="translate(729,378) scale(4.5)"><circle cx="3" cy="3" r="3"/></g>
<g transform="translate(783,378) scale(4.5)"><circle cx="3" cy="3" r="3"/></g>
<g transform="translate(54,405) scale(4.5)"><circle cx="3" cy="3" r="3"/></g>
<g transform="translate(162,405) scale(4.5)"><circle cx="3" cy="3" r="3"/></g>
<g transform="translate(189,405) scale(4.5)"><circle cx="3" cy="3" r="3"/></g>
<g transform="translate(270,405) scale(4.5)"><circle cx="3" cy="3" r="3"/></g>
<g transform="translate(297,405) scale(4.5)"><circle cx="3" cy="3" r="3"/></g>
<g transform="translate(324,405) scale(4.5)"><circle cx="3" cy="3" r="3"/></g>
<g transform="translate(351,405) scale(4.5)"><circle cx="3" cy="3" r="3"/></g>
<g transform="translate(378,405) scale(4.5)"><circle cx="3" cy="3" r="3"/></g>
<g transform="translate(432,405) scale(4.5)"><circle cx="3" cy="3" r="3"/></g>
<g transform="translate(486,405) scale(4.5)"><circle cx="3" cy="3" r="3"/></g>
<g transform="translate(513,405) scale(4.5)"><circle cx="3" cy="3" r="3"/></g>
<g transform="translate(648,405) scale(4.5)"><circle cx="3" cy="3" r="3"/></g>
<g transform="translate(675,405) scale(4.5)"><circle cx="3" cy="3" r="3"/></g>
<g transform="translate(756,405) scale(4.5)"><circle cx="3" cy="3" r="3"/></g>
<g transform="translate(783,405) scale(4.5)"><circle cx="3" cy="3" r="3"/></g>
<g transform="translate(918,405) scale(4.5)"><circle cx="3" cy="3" r="3"/></g>
<g transform="translate(108,432) scale(4.5)"><circle cx="3" cy="3" r="3"/></g>
<g transform="translate(162,432) scale(4.5)"><circle cx="3" cy="3" r="3"/></g>
<g transform="translate(189,432) scale(4.5)"><circle cx="3" cy="3" r="3"/></g>
<g transform="translate(216,432) scale(4.5)"><circle cx="3" cy="3" r="3"/></g>
<g transform="translate(270,432) scale(4.5)"><circle cx="3" cy="3" r="3"/></g>
<g transform="translate(297,432) scale(4.5)"><circle cx="3" cy="3" r="3"/></g>
<g transform="translate(351,432) scale(4.5)"><circle cx="3" cy="3" r="3"/></g>
<g transform="translate(405,432) scale(4.5)"><circle cx="3" cy="3" r="3"/></g>
<g transform="translate(513,432) scale(4.5)"><circle cx="3" cy="3" r="3"/></g>
<g transform="translate(594,432) scale(4.5)"><circle cx="3" cy="3" r="3"/></g>
<g transform="translate(648,432) scale(4.5)"><circle cx="3" cy="3" r="3"/></g>
<g transform="translate(756,432) scale(4.5)"><circle cx="3" cy="3" r="3"/></g>
<g transform="translate(783,432) scale(4.5)"><circle cx="3" cy="3" r="3"/></g>
<g transform="translate(837,432) scale(4.5)"><circle cx="3" cy="3" r="3"/></g>
<g transform="translate(891,432) scale(4.5)"><circle cx="3" cy="3" r="3"/></g>
<g transform="translate(54,459) scale(4.5)"><circle cx="3" cy="3" r="3"/></g>
<g transform="translate(81,459) scale(4.5)"><circle cx="3" cy="3" r="3"/></g>
<g transform="translate(108,459) scale(4.5)"><circle cx="3" cy="3" r="3"/></g>
<g transform="translate(189,459) scale(4.5)"><circle cx="3" cy="3" r="3"/></g>
<g transform="translate(297,459) scale(4.5)"><circle cx="3" cy="3" r="3"/></g>
<g transform="translate(324,459) scale(4.5)"><circle cx="3" cy="3" r="3"/></g>
<g transform="translate(351,459) scale(4.5)"><circle cx="3" cy="3" r="3"/></g>
<g transform="translate(405,459) scale(4.5)"><circle cx="3" cy="3" r="3"/></g>
<g transform="translate(432,459) scale(4.5)"><circle cx="3" cy="3" r="3"/></g>
<g transform="translate(459,459) scale(4.5)"><circle cx="3" cy="3" r="3"/></g>
<g transform="translate(540,459) scale(4.5)"><circle cx="3" cy="3" r="3"/></g>
<g transform="translate(594,459) scale(4.5)"><circle cx="3" cy="3" r="3"/></g>
<g transform="translate(621,459) scale(4.5)"><circle cx="3" cy="3" r="3"/></g>
<g transform="translate(648,459) scale(4.5)"><circle cx="3" cy="3" r="3"/></g>
<g transform="translate(702,459) scale(4.5)"><circle cx="3" cy="3" r="3"/></g>
<g transform="translate(729,459) scale(4.5)"><circle cx="3" cy="3" r="3"/></g>
<g transform="translate(783,459) scale(4.5)"><circle cx="3" cy="3" r="3"/></g>
<g transform="translate(864,459) scale(4.5)"><circle cx="3" cy="3" r="3"/></g>
<g transform="translate(918,459) scale(4.5)"><circle cx="3" cy="3" r="3"/></g>
<g transform="translate(189,486) scale(4.5)"><circle cx="3" cy="3" r="3"/></g>
<g transform="translate(216,486) scale(4.5)"><circle cx="3" cy="3" r="3"/></g>
<g transform="translate(270,486) scale(4.5)"><circle cx="3" cy="3" r="3"/></g>
<g transform="translate(297,486) scale(4.5)"><circle cx="3" cy="3" r="3"/></g>
<g transform="translate(378,486) scale(4.5)"><circle cx="3" cy="3" r="3"/></g>
<g transform="translate(405,486) scale(4.5)"><circle cx="3" cy="3" r="3"/></g>
<g transform="translate(459,486) scale(4.5)"><circle cx="3" cy="3" r="3"/></g>
<g transform="translate(486,486) scale(4.5)"><circle cx="3" cy="3" r="3"/></g>
<g transform="translate(567,486) scale(4.5)"><circle cx="3" cy="3" r="3"/></g>
<g transform="translate(675,486) scale(4.5)"><circle cx="3" cy="3" r="3"/></g>
<g transform="translate(783,486) scale(4.5)"><circle cx="3" cy="3" r="3"/></g>
<g transform="translate(810,486) scale(4.5)"><circle cx="3" cy="3" r="3"/></g>
<g transform="translate(837,486) scale(4.5)"><circle cx="3" cy="3" r="3"/></g>
<g transform="translate(864,486) scale(4.5)"><circle cx="3" cy="3" r="3"/></g>
<g transform="translate(135,513) scale(4.5)"><circle cx="3" cy="3" r="3"/></g>
<g transform="translate(162,513) scale(4.5)"><circle cx="3" cy="3" r="3"/></g>
<g transform="translate(189,513) scale(4.5)"><circle cx="3" cy="3" r="3"/></g>
<g transform="translate(243,513) scale(4.5)"><circle cx="3" cy="3" r="3"/></g>
<g transform="translate(270,513) scale(4.5)"><circle cx="3" cy="3" r="3"/></g>
<g transform="translate(432,513) scale(4.5)"><circle cx="3" cy="3" r="3"/></g>
<g transform="translate(513,513) scale(4.5)"><circle cx="3" cy="3" r="3"/></g>
<g transform="translate(675,513) scale(4.5)"><circle cx="3" cy="3" r="3"/></g>
<g transform="translate(702,513) scale(4.5)"><circle cx="3" cy="3" r="3"/></g>
<g transform="translate(783,513) scale(4.5)"><circle cx="3" cy="3" r="3"/></g>
<g transform="translate(810,513) scale(4.5)"><circle cx="3" cy="3" r="3"/></g>
<g transform="translate(891,513) scale(4.5)"><circle cx="3" cy="3" r="3"/></g>
<g transform="translate(81,540) scale(4.5)"><circle cx="3" cy="3" r="3"/></g>
<g transform="translate(108,540) scale(4.5)"><circle cx="3" cy="3" r="3"/></g>
<g transform="translate(135,540) scale(4.5)"><circle cx="3" cy="3" r="3"/></g>
<g transform="translate(162,540) scale(4.5)"><circle cx="3" cy="3" r="3"/></g>
<g transform="translate(216,540) scale(4.5)"><circle cx="3" cy="3" r="3"/></g>
<g transform="translate(270,540) scale(4.5)"><circle cx="3" cy="3" r="3"/></g>
<g transform="translate(351,540) scale(4.5)"><circle cx="3" cy="3" r="3"/></g>
<g transform="translate(432,540) scale(4.5)"><circle cx="3" cy="3" r="3"/></g>
<g transform="translate(459,540) scale(4.5)"><circle cx="3" cy="3" r="3"/></g>
<g transform="translate(513,540) scale(4.5)"><circle cx="3" cy="3" r="3"/></g>
<g transform="translate(567,540) scale(4.5)"><circle cx="3" cy="3" r="3"/></g>
<g transform="translate(594,540) scale(4.5)"><circle cx="3" cy="3" r="3"/></g>
<g transform="translate(648,540) scale(4.5)"><circle cx="3" cy="3" r="3"/></g>
<g transform="translate(729,540) scale(4.5)"><circle cx="3" cy="3" r="3"/></g>
<g transform="translate(756,540) scale(4.5)"><circle cx="3" cy="3" r="3"/></g>
<g transform="translate(810,540) scale(4.5)"><circle cx="3" cy="3" r="3"/></g>
<g transform="translate(864,540) scale(4.5)"><circle cx="3" cy="3" r="3"/></g>
<g transform="translate(81,567) scale(4.5)"><circle cx="3" cy="3" r="3"/></g>
<g transform="translate(162,567) scale(4.5)"><circle cx="3" cy="3" r="3"/></g>
<g transform="translate(189,567) scale(4.5)"><circle cx="3" cy="3" r="3"/></g>
<g transform="translate(243,567) scale(4.5)"><circle cx="3" cy="3" r="3"/></g>
<g transform="translate(270,567) scale(4.5)"><circle cx="3" cy="3" r="3"/></g>
<g transform="translate(351,567) scale(4.5)"><circle cx="3" cy="3" r="3"/></g>
<g transform="translate(405,567) scale(4.5)"><circle cx="3" cy="3" r="3"/></g>
<g transform="translate(432,567) scale(4.5)"><circle cx="3" cy="3" r="3"/></g>
<g transform="translate(459,567) scale(4.5)"><circle cx="3" cy="3" r="3"/></g>
<g transform="translate(486,567) scale(4.5)"><circle cx="3" cy="3" r="3"/></g>
<g transform="translate(540,567) scale(4.5)"><circle cx="3" cy="3" r="3"/></g>
<g transform="translate(621,567) scale(4.5)"><circle cx="3" cy="3" r="3"/></g>
<g transform="translate(675,567) scale(4.5)"><circle cx="3" cy="3" r="3"/></g>
<g transform="translate(702,567) scale(4.5)"><circle cx="3" cy="3" r="3"/></g>
<g transform="translate(756,567) scale(4.5)"><circle cx="3" cy="3" r="3"/></g>
<g transform="translate(837,567) scale(4.5)"><circle cx="3" cy="3" r="3"/></g>
<g transform="translate(864,567) scale(4.5)"><circle cx="3" cy="3" r="3"/></g>
<g transform="translate(891,567) scale(4.5)"><circle cx="3" cy="3" r="3"/></g>
<g transform="translate(54,594) scale(4.5)"><circle cx="3" cy="3" r="3"/></g>
<g transform="translate(108,594) scale(4.5)"><circle cx="3" cy="3" r="3"/></g>
<g transform="translate(135,594) scale(4.5)"><circle cx="3" cy="3" r="3"/></g>
<g transform="translate(216,594) scale(4.5)"><circle cx="3" cy="3" r="3"/></g>
<g transform="translate(270,594) scale(4.5)"><circle cx="3" cy="3" r="3"/></g>
<g transform="translate(297,594) scale(4.5)"><circle cx="3" cy="3" r="3"/></g>
<g transform="translate(324,594) scale(4.5)"><circle cx="3" cy="3" r="3"/></g>
<g transform="translate(351,594) scale(4.5)"><circle cx="3" cy="3" r="3"/></g>
<g transform="translate(405,594) scale(4.5)"><circle cx="3" cy="3" r="3"/></g>
<g transform="translate(459,594) scale(4.5)"><circle cx="3" cy="3" r="3"/></g>
<g transform="translate(486,594) scale(4.5)"><circle cx="3" cy="3" r="3"/></g>
<g transform="translate(513,594) scale(4.5)"><circle cx="3" cy="3" r="3"/></g>
<g transform="translate(567,594) scale(4.5)"><circle cx="3" cy="3" r="3"/></g>
<g transform="translate(648,594) scale(4.5)"><circle cx="3" cy="3" r="3"/></g>
<g transform="translate(729,594) scale(4.5)"><circle cx="3" cy="3" r="3"/></g>
<g transform="translate(756,594) scale(4.5)"><circle cx="3" cy="3" r="3"/></g>
<g transform="translate(783,594) scale(4.5)"><circle cx="3" cy="3" r="3"/></g>
<g transform="translate(810,594) scale(4.5)"><circle cx="3" cy="3" r="3"/></g>
<g transform="translate(837,594) scale(4.5)"><circle cx="3" cy="3" r="3"/></g>
<g transform="translate(918,594) scale(4.5)"><circle cx="3" cy="3" r="3"/></g>
<g transform="translate(54,621) scale(4.5)"><circle cx="3" cy="3" r="3"/></g>
<g transform="translate(81,621) scale(4.5)"><circle cx="3" cy="3" r="3"/></g>
<g transform="translate(108,621) scale(4.5)"><circle cx="3" cy="3" r="3"/></g>
<g transform="translate(135,621) scale(4.5)"><circle cx="3" cy="3" r="3"/></g>
<g transform="translate(162,621) scale(4.5)"><circle cx="3" cy="3" r="3"/></g>
<g transform="translate(243,621) scale(4.5)"><circle cx="3" cy="3" r="3"/></g>
<g transform="translate(270,621) scale(4.5)"><circle cx="3" cy="3" r="3"/></g>
<g transform="translate(378,621) scale(4.5)"><circle cx="3" cy="3" r="3"/></g>
<g transform="translate(513,621) scale(4.5)"><circle cx="3" cy="3" r="3"/></g>
<g transform="translate(540,621) scale(4.5)"><circle cx="3" cy="3" r="3"/></g>
<g transform="translate(594,621) scale(4.5)"><circle cx="3" cy="3" r="3"/></g>
<g transform="translate(621,621) scale(4.5)"><circle cx="3" cy="3" r="3"/></g>
<g transform="translate(702,621) scale(4.5)"><circle cx="3" cy="3" r="3"/></g>
<g transform="translate(864,621) scale(4.5)"><circle cx="3" cy="3" r="3"/></g>
<g transform="translate(918,621) scale(4.5)"><circle cx="3" cy="3" r="3"/></g>
<g transform="translate(54,648) scale(4.5)"><circle cx="3" cy="3" r="3"/></g>
<g transform="translate(108,648) scale(4.5)"><circle cx="3" cy="3" r="3"/></g>
<g transform="translate(135,648) scale(4.5)"><circle cx="3" cy="3" r="3"/></g>
<g transform="translate(162,648) scale(4.5)"><circle cx="3" cy="3" r="3"/></g>
<g transform="translate(216,648) scale(4.5)"><circle cx="3" cy="3" r="3"/></g>
<g transform="translate(243,648) scale(4.5)"><circle cx="3" cy="3" r="3"/></g>
<g transform="translate(459,648) scale(4.5)"><circle cx="3" cy="3" r="3"/></g>
<g transform="translate(486,648) scale(4.5)"><circle cx="3" cy="3" r="3"/></g>
<g transform="translate(621,648) scale(4.5)"><circle cx="3" cy="3" r="3"/></g>
<g transform="translate(783,648) scale(4.5)"><circle cx="3" cy="3" r="3"/></g>
<g transform="translate(810,648) scale(4.5)"><circle cx="3" cy="3" r="3"/></g>
<g transform="translate(891,648) scale(4.5)"><circle cx="3" cy="3" r="3"/></g>
<g transform="translate(54,675) scale(4.5)"><circle cx="3" cy="3" r="3"/></g>
<g transform="translate(324,675) scale(4.5)"><circle cx="3" cy="3" r="3"/></g>
<g transform="translate(351,675) scale(4.5)"><circle cx="3" cy="3" r="3"/></g>
<g transform="translate(378,675) scale(4.5)"><circle cx="3" cy="3" r="3"/></g>
<g transform="translate(405,675) scale(4.5)"><circle cx="3" cy="3" r="3"/></g>
<g transform="translate(513,675) scale(4.5)"><circle cx="3" cy="3" r="3"/></g>
<g transform="translate(594,675) scale(4.5)"><circle cx="3" cy="3" r="3"/></g>
<g transform="translate(702,675) scale(4.5)"><circle cx="3" cy="3" r="3"/></g>
<g transform="translate(837,675) scale(4.5)"><circle cx="3" cy="3" r="3"/></g>
<g transform="translate(864,675) scale(4.5)"><circle cx="3" cy="3" r="3"/></g>
<g transform="translate(891,675) scale(4.5)"><circle cx="3" cy="3" r="3"/></g>
<g transform="translate(54,702) scale(4.5)"><circle cx="3" cy="3" r="3"/></g>
<g transform="translate(108,702) scale(4.5)"><circle cx="3" cy="3" r="3"/></g>
<g transform="translate(135,702) scale(4.5)"><circle cx="3" cy="3" r="3"/></g>
<g transform="translate(162,702) scale(4.5)"><circle cx="3" cy="3" r="3"/></g>
<g transform="translate(189,702) scale(4.5)"><circle cx="3" cy="3" r="3"/></g>
<g transform="translate(216,702) scale(4.5)"><circle cx="3" cy="3" r="3"/></g>
<g transform="translate(270,702) scale(4.5)"><circle cx="3" cy="3" r="3"/></g>
<g transform="translate(378,702) scale(4.5)"><circle cx="3" cy="3" r="3"/></g>
<g transform="translate(513,702) scale(4.5)"><circle cx="3" cy="3" r="3"/></g>
<g transform="translate(567,702) scale(4.5)"><circle cx="3" cy="3" r="3"/></g>
<g transform="translate(594,702) scale(4.5)"><circle cx="3" cy="3" r="3"/></g>
<g transform="translate(621,702) scale(4.5)"><circle cx="3" cy="3" r="3"/></g>
<g transform="translate(648,702) scale(4.5)"><circle cx="3" cy="3" r="3"/></g>
<g transform="translate(702,702) scale(4.5)"><circle cx="3" cy="3" r="3"/></g>
<g transform="translate(729,702) scale(4.5)"><circle cx="3" cy="3" r="3"/></g>
<g transform="translate(756,702) scale(4.5)"><circle cx="3" cy="3" r="3"/></g>
<g transform="translate(783,702) scale(4.5)"><circle cx="3" cy="3" r="3"/></g>
<g transform="translate(810,702) scale(4.5)"><circle cx="3" cy="3" r="3"/></g>
<g transform="translate(891,702) scale(4.5)"><circle cx="3" cy="3" r="3"/></g>
<g transform="translate(918,702) scale(4.5)"><circle cx="3" cy="3" r="3"/></g>
<g transform="translate(270,729) scale(4.5)"><circle cx="3" cy="3" r="3"/></g>
<g transform="translate(297,729) scale(4.5)"><circle cx="3" cy="3" r="3"/></g>
<g transform="translate(324,729) scale(4.5)"><circle cx="3" cy="3" r="3"/></g>
<g transform="translate(405,729) scale(4.5)"><circle cx="3" cy="3" r="3"/></g>
<g transform="translate(432,729) scale(4.5)"><circle cx="3" cy="3" r="3"/></g>
<g transform="translate(459,729) scale(4.5)"><circle cx="3" cy="3" r="3"/></g>
<g transform="translate(513,729) scale(4.5)"><circle cx="3" cy="3" r="3"/></g>
<g transform="translate(540,729) scale(4.5)"><circle cx="3" cy="3" r="3"/></g>
<g transform="translate(648,729) scale(4.5)"><circle cx="3" cy="3" r="3"/></g>
<g transform="translate(702,729) scale(4.5)"><circle cx="3" cy="3" r="3"/></g>
<g transform="translate(810,729) scale(4.5)"><circle cx="3" cy="3" r="3"/></g>
<g transform="translate(864,729) scale(4.5)"><circle cx="3" cy="3" r="3"/></g>
<g transform="translate(891,729) scale(4.5)"><circle cx="3" cy="3" r="3"/></g>
<g transform="translate(918,729) scale(4.5)"><circle cx="3" cy="3" r="3"/></g>
<g transform="translate(378,756) scale(4.5)"><circle cx="3" cy="3" r="3"/></g>
<g transform="translate(405,756) scale(4.5)"><circle cx="3" cy="3" r="3"/></g>
<g transform="translate(459,756) scale(4.5)"><circle cx="3" cy="3" r="3"/></g>
<g transform="translate(513,756) scale(4.5)"><circle cx="3" cy="3" r="3"/></g>
<g transform="translate(540,756) scale(4.5)"><circle cx="3" cy="3" r="3"/></g>
<g transform="translate(648,756) scale(4.5)"><circle cx="3" cy="3" r="3"/></g>
<g transform="translate(702,756) scale(4.5)"><circle cx="3" cy="3" r="3"/></g>
<g transform="translate(756,756) scale(4.5)"><circle cx="3" cy="3" r="3"/></g>
<g transform="translate(810,756) scale(4.5)"><circle cx="3" cy="3" r="3"/></g>
<g transform="translate(864,756) scale(4.5)"><circle cx="3" cy="3" r="3"/></g>
<g transform="translate(891,756) scale(4.5)"><circle cx="3" cy="3" r="3"/></g>
<g transform="translate(378,783) scale(4.5)"><circle cx="3" cy="3" r="3"/></g>
<g transform="translate(405,783) scale(4.5)"><circle cx="3" cy="3" r="3"/></g>
<g transform="translate(459,783) scale(4.5)"><circle cx="3" cy="3" r="3"/></g>
<g transform="translate(486,783) scale(4.5)"><circle cx="3" cy="3" r="3"/></g>
<g transform="translate(513,783) scale(4.5)"><circle cx="3" cy="3" r="3"/></g>
<g transform="translate(540,783) scale(4.5)"><circle cx="3" cy="3" r="3"/></g>
<g transform="translate(594,783) scale(4.5)"><circle cx="3" cy="3" r="3"/></g>
<g transform="translate(675,783) scale(4.5)"><circle cx="3" cy="3" r="3"/></g>
<g transform="translate(702,783) scale(4.5)"><circle cx="3" cy="3" r="3"/></g>
<g transform="translate(810,783) scale(4.5)"><circle cx="3" cy="3" r="3"/></g>
<g transform="translate(864,783) scale(4.5)"><circle cx="3" cy="3" r="3"/></g>
<g transform="translate(891,783) scale(4.5)"><circle cx="3" cy="3" r="3"/></g>
<g transform="translate(918,783) scale(4.5)"><circle cx="3" cy="3" r="3"/></g>
<g transform="translate(270,810) scale(4.5)"><circle cx="3" cy="3" r="3"/></g>
<g transform="translate(297,810) scale(4.5)"><circle cx="3" cy="3" r="3"/></g>
<g transform="translate(351,810) scale(4.5)"><circle cx="3" cy="3" r="3"/></g>
<g transform="translate(405,810) scale(4.5)"><circle cx="3" cy="3" r="3"/></g>
<g transform="translate(486,810) scale(4.5)"><circle cx="3" cy="3" r="3"/></g>
<g transform="translate(567,810) scale(4.5)"><circle cx="3" cy="3" r="3"/></g>
<g transform="translate(594,810) scale(4.5)"><circle cx="3" cy="3" r="3"/></g>
<g transform="translate(621,810) scale(4.5)"><circle cx="3" cy="3" r="3"/></g>
<g transform="translate(648,810) scale(4.5)"><circle cx="3" cy="3" r="3"/></g>
<g transform="translate(675,810) scale(4.5)"><circle cx="3" cy="3" r="3"/></g>
<g transform="translate(702,810) scale(4.5)"><circle cx="3" cy="3" r="3"/></g>
<g transform="translate(729,810) scale(4.5)"><circle cx="3" cy="3" r="3"/></g>
<g transform="translate(756,810) scale(4.5)"><circle cx="3" cy="3" r="3"/></g>
<g transform="translate(783,810) scale(4.5)"><circle cx="3" cy="3" r="3"/></g>
<g transform="translate(810,810) scale(4.5)"><circle cx="3" cy="3" r="3"/></g>
<g transform="translate(837,810) scale(4.5)"><circle cx="3" cy="3" r="3"/></g>
<g transform="translate(891,810) scale(4.5)"><circle cx="3" cy="3" r="3"/></g>
<g transform="translate(918,810) scale(4.5)"><circle cx="3" cy="3" r="3"/></g>
<g transform="translate(270,837) scale(4.5)"><circle cx="3" cy="3" r="3"/></g>
<g transform="translate(324,837) scale(4.5)"><circle cx="3" cy="3" r="3"/></g>
<g transform="translate(351,837) scale(4.5)"><circle cx="3" cy="3" r="3"/></g>
<g transform="translate(378,837) scale(4.5)"><circle cx="3" cy="3" r="3"/></g>
<g transform="translate(405,837) scale(4.5)"><circle cx="3" cy="3" r="3"/></g>
<g transform="translate(432,837) scale(4.5)"><circle cx="3" cy="3" r="3"/></g>
<g transform="translate(459,837) scale(4.5)"><circle cx="3" cy="3" r="3"/></g>
<g transform="translate(567,837) scale(4.5)"><circle cx="3" cy="3" r="3"/></g>
<g transform="translate(621,837) scale(4.5)"><circle cx="3" cy="3" r="3"/></g>
<g transform="translate(675,837) scale(4.5)"><circle cx="3" cy="3" r="3"/></g>
<g transform="translate(729,837) scale(4.5)"><circle cx="3" cy="3" r="3"/></g>
<g transform="translate(810,837) scale(4.5)"><circle cx="3" cy="3" r="3"/></g>
<g transform="translate(837,837) scale(4.5)"><circle cx="3" cy="3" r="3"/></g>
<g transform="translate(891,837) scale(4.5)"><circle cx="3" cy="3" r="3"/></g>
<g transform="translate(270,864) scale(4.5)"><circle cx="3" cy="3" r="3"/></g>
<g transform="translate(378,864) scale(4.5)"><circle cx="3" cy="3" r="3"/></g>
<g transform="translate(405,864) scale(4.5)"><circle cx="3" cy="3" r="3"/></g>
<g transform="translate(432,864) scale(4.5)"><circle cx="3" cy="3" r="3"/></g>
<g transform="translate(675,864) scale(4.5)"><circle cx="3" cy="3" r="3"/></g>
<g transform="translate(702,864) scale(4.5)"><circle cx="3" cy="3" r="3"/></g>
<g transform="translate(729,864) scale(4.5)"><circle cx="3" cy="3" r="3"/></g>
<g transform="translate(756,864) scale(4.5)"><circle cx="3" cy="3" r="3"/></g>
<g transform="translate(378,891) scale(4.5)"><circle cx="3" cy="3" r="3"/></g>
<g transform="translate(432,891) scale(4.5)"><circle cx="3" cy="3" r="3"/></g>
<g transform="translate(459,891) scale(4.5)"><circle cx="3" cy="3" r="3"/></g>
<g transform="translate(486,891) scale(4.5)"><circle cx="3" cy="3" r="3"/></g>
<g transform="translate(513,891) scale(4.5)"><circle cx="3" cy="3" r="3"/></g>
<g transform="translate(594,891) scale(4.5)"><circle cx="3" cy="3" r="3"/></g>
<g transform="translate(621,891) scale(4.5)"><circle cx="3" cy="3" r="3"/></g>
<g transform="translate(648,891) scale(4.5)"><circle cx="3" cy="3" r="3"/></g>
<g transform="translate(783,891) scale(4.5)"><circle cx="3" cy="3" r="3"/></g>
<g transform="translate(864,891) scale(4.5)"><circle cx="3" cy="3" r="3"/></g>
<g transform="translate(297,918) scale(4.5)"><circle cx="3" cy="3" r="3"/></g>
<g transform="translate(405,918) scale(4.5)"><circle cx="3" cy="3" r="3"/></g>
<g transform="translate(432,918) scale(4.5)"><circle cx="3" cy="3" r="3"/></g>
<g transform="translate(459,918) scale(4.5)"><circle cx="3" cy="3" r="3"/></g>
<g transform="translate(513,918) scale(4.5)"><circle cx="3" cy="3" r="3"/></g>
<g transform="translate(540,918) scale(4.5)"><circle cx="3" cy="3" r="3"/></g>
<g transform="translate(567,918) scale(4.5)"><circle cx="3" cy="3" r="3"/></g>
<g transform="translate(621,918) scale(4.5)"><circle cx="3" cy="3" r="3"/></g>
<g transform="translate(648,918) scale(4.5)"><circle cx="3" cy="3" r="3"/></g>
<g transform="translate(675,918) scale(4.5)"><circle cx="3" cy="3" r="3"/></g>
<g transform="translate(702,918) scale(4.5)"><circle cx="3" cy="3" r="3"/></g>
<g transform="translate(729,918) scale(4.5)"><circle cx="3" cy="3" r="3"/></g>
<g transform="translate(756,918) scale(4.5)"><circle cx="3" cy="3" r="3"/></g>
<g transform="translate(864,918) scale(4.5)"><circle cx="3" cy="3" r="3"/></g>
<g transform="translate(891,918) scale(4.5)"><circle cx="3" cy="3" r="3"/></g>
</g></mask></defs>
<rect width="999" height="999" fill="#ffffff" x="0" y="0" />
<rect x="0" y="0" width="999" height="999" mask="url(#qrmask)" fill="#000000" />
<g transform="translate(54,54)"  fill="#000000"><g transform="scale(13.5)"><path d="M0,0v14h14V0H0z M12,12H2V2h10V12z"/></g></g>
<g transform="translate(756,54)"  fill="#000000"><g transform="scale(13.5)"><path d="M0,0v14h14V0H0z M12,12H2V2h10V12z"/></g></g>
<g transform="translate(54,756)"  fill="#000000"><g transform="scale(13.5)"><path d="M0,0v14h14V0H0z M12,12H2V2h10V12z"/></g></g>
<g transform="translate(108,108)"  fill="#000000"><g transform="scale(13.5)"><circle cx="3" cy="3" r="3"/></g></g>
<g transform="translate(810,108)"  fill="#000000"><g transform="scale(13.5)"><circle cx="3" cy="3" r="3"/></g></g>
<g transform="translate(108,810)"  fill="#000000"><g transform="scale(13.5)"><circle cx="3" cy="3" r="3"/></g></g>
</svg>