<?xml version="1.0" standalone="no"?>
<!DOCTYPE svg PUBLIC "-//W3C//DTD SVG 20010904//EN"
 "http://www.w3.org/TR/2001/REC-SVG-20010904/DTD/svg10.dtd">
<svg version="1.0" xmlns="http://www.w3.org/2000/svg"
 width="200.000000pt" height="136.000000pt" viewBox="0 0 200.000000 136.000000"
 preserveAspectRatio="xMidYMid meet">

<g transform="translate(0.000000,136.000000) scale(0.100000,-0.100000)"
fill="#000000" stroke="none">
<path d="M1632 924 c-195 -226 -219 -259 -209 -275 7 -11 14 -19 18 -19 3 0
88 109 190 242 187 246 233 308 226 308 -2 0 -103 -115 -225 -256z"/>
<path d="M680 230 c0 -33 -2 -60 -5 -60 -2 0 -15 5 -29 11 -30 14 -70 5 -96
-21 -30 -30 -27 -103 5 -135 27 -28 82 -34 104 -13 11 10 14 10 18 1 3 -7 13
-13 24 -13 18 0 19 9 19 145 0 138 -1 145 -20 145 -18 0 -20 -7 -20 -60z m-13
-106 c15 -24 15 -29 2 -53 -21 -36 -67 -36 -88 0 -13 24 -13 29 2 53 11 16 27
26 42 26 15 0 31 -10 42 -26z"/>
<path d="M1600 144 c0 -112 3 -145 13 -142 9 3 13 44 15 146 2 122 0 142 -13
142 -13 0 -15 -22 -15 -146z"/>
<path d="M10 135 l0 -135 25 0 25 0 0 103 1 102 65 -103 c59 -91 69 -102 95
-102 l29 0 0 135 0 135 -25 0 c-24 0 -24 -2 -27 -92 l-3 -92 -60 92 c-55 84
-63 92 -92 92 l-33 0 0 -135z"/>
<path d="M1516 263 c-12 -12 -6 -33 9 -33 8 0 15 6 15 14 0 17 -14 28 -24 19z"/>
<path d="M329 161 c-40 -41 -40 -91 0 -132 39 -38 87 -39 130 -3 26 21 31 33
31 69 0 36 -5 48 -31 69 -43 36 -91 35 -130 -3z m103 -28 c23 -21 23 -55 -1
-77 -26 -24 -62 -17 -80 15 -13 24 -13 29 2 53 20 30 52 34 79 9z"/>
<path d="M808 175 c-61 -34 -55 -137 11 -164 56 -24 151 12 102 38 -13 7 -22
8 -26 1 -14 -23 -85 -5 -85 22 0 4 32 8 71 8 l72 0 -7 33 c-12 64 -78 94 -138
62z m73 -25 c36 -20 23 -40 -26 -40 -50 0 -57 11 -23 34 27 19 24 19 49 6z"/>
<path d="M990 87 c0 -66 3 -88 13 -85 7 3 13 29 15 68 3 71 13 90 46 90 36 0
46 -20 46 -92 0 -39 4 -68 10 -68 6 0 10 24 10 53 0 63 18 101 48 105 40 6 52
-14 52 -89 0 -39 4 -69 10 -69 15 0 13 153 -2 168 -15 15 -80 16 -96 0 -8 -8
-15 -8 -25 0 -7 6 -39 11 -70 10 l-57 -2 0 -89z"/>
<path d="M1321 167 c-14 -18 -2 -30 15 -16 7 6 28 9 46 7 25 -2 34 -8 36 -25
3 -20 -1 -23 -27 -23 -47 0 -80 -17 -87 -45 -13 -50 46 -82 99 -54 16 9 22 9
25 0 2 -6 8 -11 13 -11 5 0 9 33 9 73 0 59 -4 77 -18 90 -22 21 -95 23 -111 4z
m99 -96 c0 -46 -61 -66 -84 -28 -9 15 -7 21 8 33 30 21 76 19 76 -5z"/>
<path d="M1510 89 c0 -68 3 -90 13 -87 8 3 13 33 15 91 2 73 0 87 -13 87 -12
0 -15 -16 -15 -91z"/>
<path d="M1705 155 c-75 -75 34 -203 116 -136 33 26 19 36 -20 14 -28 -16 -33
-17 -58 -3 -16 9 -29 26 -31 38 -3 21 0 22 67 22 63 0 71 2 71 19 0 10 -9 30
-21 45 -28 36 -89 37 -124 1z m103 -7 c26 -26 13 -38 -43 -38 -57 0 -66 8 -39
34 18 19 65 21 82 4z"/>
<path d="M1900 90 c0 -53 4 -90 10 -90 6 0 10 26 10 58 0 63 19 102 50 102 10
0 22 5 25 10 9 14 -48 13 -63 -2 -9 -9 -12 -9 -12 0 0 7 -4 12 -10 12 -6 0
-10 -37 -10 -90z"/>
</g>
</svg>
